<svg width="320" height="150" viewBox="0 0 320 150" fill="none" xmlns="http://www.w3.org/2000/svg">
<g clip-path="url(#clip0_31_58)">
<path d="M320 0H0V150H320V0Z" fill="#00293F" stroke="#00293F" stroke-miterlimit="10"/>
<path d="M163.844 47.9742V49.9062H163.614V49.5612C163.614 49.2545 163.507 48.9939 163.292 48.7792C163.077 48.5492 162.809 48.4342 162.487 48.4342H157.634V55.5412H161.521C161.828 55.5259 162.088 55.4109 162.303 55.1962C162.518 54.9815 162.625 54.7209 162.625 54.4142V54.0692H162.855V57.7032H162.625V57.3582C162.625 57.0515 162.518 56.7909 162.303 56.5762C162.104 56.3615 161.851 56.2465 161.544 56.2312H157.634V62.1422C157.634 62.5409 157.78 62.8859 158.071 63.1772C158.362 63.4532 158.707 63.5912 159.106 63.5912H159.405V63.8212H154.368V63.5912H154.667C155.066 63.5912 155.403 63.4532 155.679 63.1772C155.97 62.8859 156.124 62.5409 156.139 62.1422V49.2622C156.139 48.8942 155.986 48.5875 155.679 48.3422C155.388 48.0815 155.05 47.9512 154.667 47.9512H154.391L154.368 47.7212H161.107C161.582 47.7212 162.096 47.6752 162.648 47.5832C163.215 47.4912 163.614 47.3992 163.844 47.3072V47.9742ZM167.11 63.5912C167.509 63.5912 167.846 63.4532 168.122 63.1772C168.414 62.8859 168.567 62.5409 168.582 62.1422V49.2622C168.582 48.8942 168.437 48.5875 168.145 48.3422C167.854 48.0815 167.509 47.9512 167.11 47.9512H166.834L166.811 47.7212H173.55C174.026 47.7212 174.539 47.6752 175.091 47.5832C175.659 47.4912 176.057 47.3992 176.287 47.3072V50.2052H176.057V49.7912C176.057 49.4232 175.927 49.1089 175.666 48.8482C175.421 48.5875 175.122 48.4495 174.769 48.4342H170.077V55.5412H173.964C174.271 55.5259 174.532 55.4109 174.746 55.1962C174.961 54.9815 175.068 54.7132 175.068 54.3912V54.0692H175.298V57.7032H175.068V57.3582C175.068 57.0515 174.961 56.7909 174.746 56.5762C174.547 56.3615 174.294 56.2465 173.987 56.2312H170.077V63.1082H173.366C174.501 63.1082 175.367 62.8552 175.965 62.3492C176.563 61.8432 177.062 61.0919 177.46 60.0952H177.69L176.356 63.8212H166.811V63.5912H167.11ZM180.16 63.5912C180.559 63.5912 180.896 63.4532 181.172 63.1772C181.464 62.8859 181.617 62.5409 181.632 62.1422V49.4002C181.617 49.0015 181.464 48.6642 181.172 48.3882C180.896 48.0969 180.559 47.9512 180.16 47.9512H179.861V47.7212H184.898V47.9512H184.599C184.047 47.9512 183.626 48.1889 183.334 48.6642C183.196 48.8942 183.127 49.1395 183.127 49.4002V63.1082H186.416C187.551 63.1082 188.417 62.8552 189.015 62.3492C189.613 61.8432 190.112 61.0919 190.51 60.0952H190.74L189.406 63.8212H179.861V63.5912H180.16ZM192.738 63.5912C193.137 63.5912 193.474 63.4532 193.75 63.1772C194.042 62.8859 194.195 62.5409 194.21 62.1422V49.3772C194.195 48.9785 194.042 48.6412 193.75 48.3652C193.474 48.0892 193.137 47.9512 192.738 47.9512H192.439V47.7212H197.476V47.9512H197.177C196.779 47.9512 196.434 48.0892 196.142 48.3652C195.866 48.6412 195.721 48.9785 195.705 49.3772V62.1422C195.705 62.5409 195.851 62.8859 196.142 63.1772C196.434 63.4532 196.779 63.5912 197.177 63.5912H197.476V63.8212H192.439V63.5912H192.738ZM210.952 52.1602C210.952 52.8349 210.814 53.4635 210.538 54.0462C210.032 55.1349 209.142 55.8939 207.87 56.3232C207.425 56.4765 207.042 56.5532 206.72 56.5532C205.769 56.5532 204.949 56.3769 204.259 56.0242V55.7942C205.378 56.0395 206.413 55.9169 207.364 55.4262C208.207 54.9969 208.782 54.2915 209.089 53.3102C209.181 53.0035 209.227 52.7122 209.227 52.4362C209.227 52.1602 209.227 51.9915 209.227 51.9302C209.196 50.8569 208.912 50.0059 208.376 49.3772C207.839 48.7332 207.088 48.4112 206.122 48.4112H203.477V62.1422C203.492 62.5409 203.638 62.8859 203.914 63.1772C204.205 63.4532 204.55 63.5912 204.949 63.5912H205.248V63.8212H200.211V63.5912H200.51C200.908 63.5912 201.246 63.4532 201.522 63.1772C201.813 62.8859 201.966 62.5409 201.982 62.1422V49.2852C201.936 48.9019 201.775 48.5875 201.499 48.3422C201.223 48.0815 200.893 47.9512 200.51 47.9512H200.234L200.211 47.7212H206.214C207.686 47.7212 208.843 48.1199 209.687 48.9172C210.53 49.6992 210.952 50.7802 210.952 52.1602ZM213.672 63.5912C214.071 63.5912 214.408 63.4532 214.684 63.1772C214.975 62.8859 215.129 62.5409 215.144 62.1422V49.2622C215.144 48.8942 214.998 48.5875 214.707 48.3422C214.416 48.0815 214.071 47.9512 213.672 47.9512H213.396L213.373 47.7212H220.112C220.587 47.7212 221.101 47.6752 221.653 47.5832C222.22 47.4912 222.619 47.3992 222.849 47.3072V50.2052H222.619V49.7912C222.619 49.4232 222.489 49.1089 222.228 48.8482C221.983 48.5875 221.684 48.4495 221.331 48.4342H216.639V55.5412H220.526C220.833 55.5259 221.093 55.4109 221.308 55.1962C221.523 54.9815 221.63 54.7132 221.63 54.3912V54.0692H221.86V57.7032H221.63V57.3582C221.63 57.0515 221.523 56.7909 221.308 56.5762C221.109 56.3615 220.856 56.2465 220.549 56.2312H216.639V63.1082H219.928C221.063 63.1082 221.929 62.8552 222.527 62.3492C223.125 61.8432 223.623 61.0919 224.022 60.0952H224.252L222.918 63.8212H213.373V63.5912H213.672Z" fill="white"/>
<path d="M162.625 91.5604C160.172 91.5451 158.178 90.7707 156.645 89.2374C155.127 87.7041 154.368 85.6877 154.368 83.1884C154.368 80.6891 155.127 78.6727 156.645 77.1394C158.178 75.5907 160.172 74.8164 162.625 74.8164C164.741 74.8164 166.604 75.3377 168.214 76.3804L168.674 79.6234H168.467C168.13 78.3047 167.447 77.2927 166.42 76.5874C165.408 75.8667 164.143 75.5064 162.625 75.5064C160.678 75.5064 159.098 76.2117 157.887 77.6224C156.691 79.0331 156.093 80.8884 156.093 83.1884C156.093 85.4884 156.691 87.3437 157.887 88.7544C159.098 90.1497 160.678 90.8551 162.625 90.8704C163.622 90.8704 164.565 90.6941 165.454 90.3414C166.359 89.9887 167.148 89.4981 167.823 88.8694V84.7984C167.823 84.4611 167.716 84.2081 167.501 84.0394C167.302 83.8554 167.018 83.7634 166.65 83.7634H166.282V83.5334H170.79V83.7634H170.445C170.062 83.7634 169.77 83.8554 169.571 84.0394C169.372 84.2081 169.28 84.4611 169.295 84.7984V88.5934C168.896 89.1147 168.421 89.5824 167.869 89.9964C167.317 90.4104 166.573 90.7784 165.638 91.1004C164.718 91.4071 163.714 91.5604 162.625 91.5604ZM188.244 75.3684H187.876C187.554 75.3684 187.27 75.4757 187.025 75.6904C186.795 75.8897 186.672 76.1427 186.657 76.4494V85.5574C186.657 87.3514 186.089 88.8004 184.955 89.9044C183.82 91.0084 182.31 91.5604 180.424 91.5604C178.538 91.5604 177.004 91.0161 175.824 89.9274C174.658 88.8234 174.076 87.3744 174.076 85.5804V76.5184C174.076 76.0584 173.876 75.7211 173.478 75.5064C173.294 75.4144 173.087 75.3684 172.857 75.3684H172.489V75.1384H177.158V75.3684H176.79C176.452 75.3684 176.169 75.4757 175.939 75.6904C175.709 75.8897 175.586 76.1504 175.571 76.4724V85.2584C175.571 86.9297 176.015 88.2791 176.905 89.3064C177.809 90.3337 179.013 90.8474 180.516 90.8474C182.018 90.8474 183.237 90.3644 184.173 89.3984C185.108 88.4171 185.576 87.1367 185.576 85.5574V76.4724C185.56 76.1504 185.438 75.8897 185.208 75.6904C184.978 75.4757 184.694 75.3684 184.357 75.3684H183.989V75.1384H188.244V75.3684ZM191.076 91.0084C191.475 91.0084 191.812 90.8704 192.088 90.5944C192.38 90.3031 192.533 89.9581 192.548 89.5594V76.6794C192.548 76.3114 192.403 76.0047 192.111 75.7594C191.82 75.4987 191.475 75.3684 191.076 75.3684H190.8L190.777 75.1384H197.516C197.992 75.1384 198.505 75.0924 199.057 75.0004C199.625 74.9084 200.023 74.8164 200.253 74.7244V77.6224H200.023V77.2084C200.023 76.8404 199.893 76.5261 199.632 76.2654C199.387 76.0047 199.088 75.8667 198.735 75.8514H194.043V82.9584H197.93C198.237 82.9431 198.498 82.8281 198.712 82.6134C198.927 82.3987 199.034 82.1304 199.034 81.8084V81.4864H199.264V85.1204H199.034V84.7754C199.034 84.4687 198.927 84.2081 198.712 83.9934C198.513 83.7787 198.26 83.6637 197.953 83.6484H194.043V90.5254H197.332C198.467 90.5254 199.333 90.2724 199.931 89.7664C200.529 89.2604 201.028 88.5091 201.426 87.5124H201.656L200.322 91.2384H190.777V91.0084H191.076ZM204.126 91.0084C204.525 91.0084 204.862 90.8704 205.138 90.5944C205.429 90.3031 205.583 89.9581 205.598 89.5594V76.8174C205.583 76.4187 205.429 76.0814 205.138 75.8054C204.862 75.5141 204.525 75.3684 204.126 75.3684H203.827V75.1384H208.864V75.3684H208.565C208.013 75.3684 207.591 75.6061 207.3 76.0814C207.162 76.3114 207.093 76.5567 207.093 76.8174V90.5254H210.382C211.517 90.5254 212.383 90.2724 212.981 89.7664C213.579 89.2604 214.077 88.5091 214.476 87.5124H214.706L213.372 91.2384H203.827V91.0084H204.126ZM216.704 91.0084C217.103 91.0084 217.44 90.8704 217.716 90.5944C218.007 90.3031 218.161 89.9581 218.176 89.5594V76.8174C218.161 76.4187 218.007 76.0814 217.716 75.8054C217.44 75.5141 217.103 75.3684 216.704 75.3684H216.405V75.1384H221.442V75.3684H221.143C220.591 75.3684 220.169 75.6061 219.878 76.0814C219.74 76.3114 219.671 76.5567 219.671 76.8174V90.5254H222.96C224.095 90.5254 224.961 90.2724 225.559 89.7664C226.157 89.2604 226.655 88.5091 227.054 87.5124H227.284L225.95 91.2384H216.405V91.0084H216.704ZM229.282 91.0084C229.681 91.0084 230.018 90.8704 230.294 90.5944C230.586 90.3031 230.739 89.9581 230.754 89.5594V76.6794C230.754 76.3114 230.609 76.0047 230.317 75.7594C230.026 75.4987 229.681 75.3684 229.282 75.3684H229.006L228.983 75.1384H235.722C236.198 75.1384 236.711 75.0924 237.263 75.0004C237.831 74.9084 238.229 74.8164 238.459 74.7244V77.6224H238.229V77.2084C238.229 76.8404 238.099 76.5261 237.838 76.2654C237.593 76.0047 237.294 75.8667 236.941 75.8514H232.249V82.9584H236.136C236.443 82.9431 236.704 82.8281 236.918 82.6134C237.133 82.3987 237.24 82.1304 237.24 81.8084V81.4864H237.47V85.1204H237.24V84.7754C237.24 84.4687 237.133 84.2081 236.918 83.9934C236.719 83.7787 236.466 83.6637 236.159 83.6484H232.249V90.5254H235.538C236.673 90.5254 237.539 90.2724 238.137 89.7664C238.735 89.2604 239.234 88.5091 239.632 87.5124H239.862L238.528 91.2384H228.983V91.0084H229.282ZM246.771 75.8514H245.299V89.5594C245.299 89.9581 245.437 90.3031 245.713 90.5944C246.004 90.8704 246.357 91.0084 246.771 91.0084H247.047L247.07 91.2384H242.033V91.0084H242.332C242.731 91.0084 243.068 90.8704 243.344 90.5944C243.635 90.3184 243.789 89.9811 243.804 89.5824V76.8174C243.789 76.4187 243.635 76.0814 243.344 75.8054C243.068 75.5141 242.731 75.3684 242.332 75.3684H242.033V75.1384H248.243C249.638 75.1384 250.735 75.5294 251.532 76.3114C252.329 77.0781 252.728 78.0824 252.728 79.3244C252.728 80.5511 252.345 81.6167 251.578 82.5214C250.827 83.4107 249.907 83.8554 248.818 83.8554C249.048 83.9627 249.316 84.1774 249.623 84.4994C249.945 84.8061 250.229 85.1281 250.474 85.4654C251.793 87.3514 252.651 88.5167 253.05 88.9614C253.449 89.3907 253.732 89.6897 253.901 89.8584C254.07 90.0117 254.254 90.1651 254.453 90.3184C254.652 90.4717 254.852 90.5944 255.051 90.6864C255.496 90.9011 255.971 91.0084 256.477 91.0084V91.2384H255.212C254.553 91.2384 253.939 91.1234 253.372 90.8934C252.805 90.6481 252.375 90.4027 252.084 90.1574C251.808 89.8967 251.563 89.6514 251.348 89.4214C251.149 89.1761 250.581 88.3787 249.646 87.0294C248.711 85.6801 248.166 84.9134 248.013 84.7294C247.86 84.5301 247.699 84.3384 247.53 84.1544C247.039 83.6331 246.549 83.3724 246.058 83.3724V83.1424C246.181 83.1577 246.342 83.1654 246.541 83.1654C246.74 83.1654 246.986 83.1577 247.277 83.1424C249.178 83.0964 250.374 82.2991 250.865 80.7504C250.957 80.4437 251.003 80.1601 251.003 79.8994C251.003 79.6234 251.003 79.4471 251.003 79.3704C250.972 78.3431 250.704 77.5151 250.198 76.8864C249.692 76.2577 249.01 75.9204 248.151 75.8744C247.783 75.8591 247.323 75.8514 246.771 75.8514ZM257.201 91.0084C257.6 91.0084 257.937 90.8704 258.213 90.5944C258.505 90.3031 258.658 89.9581 258.673 89.5594V76.6794C258.673 76.3114 258.528 76.0047 258.236 75.7594C257.945 75.4987 257.6 75.3684 257.201 75.3684H256.925L256.902 75.1384H263.641C264.117 75.1384 264.63 75.0924 265.182 75.0004C265.75 74.9084 266.148 74.8164 266.378 74.7244V77.6224H266.148V77.2084C266.148 76.8404 266.018 76.5261 265.757 76.2654C265.512 76.0047 265.213 75.8667 264.86 75.8514H260.168V82.9584H264.055C264.362 82.9431 264.623 82.8281 264.837 82.6134C265.052 82.3987 265.159 82.1304 265.159 81.8084V81.4864H265.389V85.1204H265.159V84.7754C265.159 84.4687 265.052 84.2081 264.837 83.9934C264.638 83.7787 264.385 83.6637 264.078 83.6484H260.168V90.5254H263.457C264.592 90.5254 265.458 90.2724 266.056 89.7664C266.654 89.2604 267.153 88.5091 267.551 87.5124H267.781L266.447 91.2384H256.902V91.0084H257.201Z" fill="white"/>
<path d="M148.526 36.755V115.232" stroke="white" stroke-width="0.75" stroke-miterlimit="10"/>
<path d="M15.7068 100.381H14.4319V101.146H25.9697V47.8808H14.4319V48.6357H15.7195C19.149 48.6357 21.941 50.6424 22.1705 53.1755V95.6026C22.1068 98.2549 19.2383 100.391 15.7068 100.391V100.381Z" fill="white"/>
<path d="M65.1984 59.394V46.4901C63.3243 47.0861 57.5108 47.841 53.1506 47.8708H28.8638V101.136H45.0933V100.371H43.8056C40.2741 100.371 37.4056 98.2351 37.3419 95.5828V76.4603H50.8431C55.7387 76.5695 59.2956 79.3013 59.2829 82.9768V83.6324H60.2646V66.0596H59.2829V66.7251C59.2956 70.4304 55.6749 73.1722 50.7156 73.2417H37.3291V51.0993H54.5913C60.494 51.2483 64.1913 54.1093 64.1785 58.5596V59.3642H65.1984V59.394Z" fill="white"/>
<path d="M73.8422 54.5563C68.1944 59.255 65.0709 65.6722 65.0709 73.4205C65.0709 81.1689 68.2454 87.6656 73.8422 92.3941V54.5563Z" fill="white"/>
<path d="M114.894 74.6225V75.3874H116.488C119.751 75.3874 121.702 76.6291 121.676 78.8543V90.4868C119.292 95.2947 112 98.0066 104.567 98.0066C89.702 97.9868 81.5171 88.5795 81.5171 73.8775C81.5171 58.4106 90.3649 49.0133 106.875 49.0133C117.648 49.0133 127.222 52.649 131.022 62.9901H131.863L131.659 49.9371C125.731 47.6623 114.92 45.8146 103.815 45.8146C92.7108 45.8146 83.3657 48.1689 76.7108 52.4305V94.5298C83.3147 98.8311 92.4175 101.205 103.229 101.205C119.407 101.205 131.939 96.0298 136.682 91.4007V78.8245C136.606 76.6192 138.454 75.3775 141.718 75.3775H143.235V74.6126H114.881L114.894 74.6225Z" fill="white"/>
<path d="M160.64 108.313H160.72V108.413H158.47V108.313H158.56C158.7 108.313 158.803 108.269 158.87 108.183C158.943 108.089 158.98 108.003 158.98 107.923C158.98 107.843 158.966 107.763 158.94 107.683L158.3 105.983H155.6L154.93 107.693C154.903 107.773 154.89 107.853 154.89 107.933C154.89 108.006 154.923 108.089 154.99 108.183C155.063 108.269 155.17 108.313 155.31 108.313H155.4V108.413H153.39V108.313H153.48C153.646 108.313 153.81 108.259 153.97 108.153C154.13 108.046 154.26 107.889 154.36 107.683L156.62 102.303C156.866 101.763 156.99 101.419 156.99 101.273H157.08L159.76 107.683C159.853 107.889 159.98 108.046 160.14 108.153C160.3 108.259 160.466 108.313 160.64 108.313ZM155.72 105.683H158.18L156.98 102.473L155.72 105.683ZM164.589 101.413C165.655 101.413 166.519 101.736 167.179 102.383C167.845 103.023 168.179 103.866 168.179 104.913C168.179 105.959 167.845 106.806 167.179 107.453C166.519 108.093 165.655 108.413 164.589 108.413H161.199V108.313H161.329C161.502 108.313 161.649 108.253 161.769 108.133C161.895 108.006 161.962 107.856 161.969 107.683V102.083C161.969 101.923 161.902 101.789 161.769 101.683C161.642 101.569 161.495 101.513 161.329 101.513H161.209L161.199 101.413H164.589ZM162.619 101.713V108.113H164.589C165.149 108.113 165.642 107.979 166.069 107.713C166.502 107.446 166.835 107.073 167.069 106.593C167.309 106.106 167.429 105.546 167.429 104.913C167.429 103.953 167.165 103.179 166.639 102.593C166.119 102.006 165.435 101.713 164.589 101.713H162.619ZM173.814 101.413H175.824V101.513H175.734C175.567 101.513 175.404 101.566 175.244 101.673C175.084 101.773 174.957 101.926 174.864 102.133L172.454 107.523C172.207 108.063 172.084 108.406 172.084 108.553H171.994L169.184 102.143C169.09 101.929 168.96 101.773 168.794 101.673C168.634 101.566 168.47 101.513 168.304 101.513H168.224V101.413H170.474V101.513H170.384C170.244 101.513 170.137 101.559 170.064 101.653C169.997 101.739 169.964 101.823 169.964 101.903C169.964 101.976 169.98 102.053 170.014 102.133L172.104 107.373L174.284 102.133C174.31 102.053 174.324 101.976 174.324 101.903C174.324 101.823 174.287 101.739 174.214 101.653C174.147 101.559 174.044 101.513 173.904 101.513H173.814V101.413ZM176.834 102.283C177.548 101.609 178.471 101.273 179.604 101.273C180.744 101.273 181.671 101.609 182.384 102.283C183.098 102.949 183.454 103.826 183.454 104.913C183.454 105.999 183.098 106.879 182.384 107.553C181.671 108.219 180.744 108.553 179.604 108.553C178.471 108.553 177.548 108.219 176.834 107.553C176.121 106.879 175.764 105.999 175.764 104.913C175.764 103.826 176.121 102.949 176.834 102.283ZM177.374 107.333C177.941 107.946 178.684 108.253 179.604 108.253C180.524 108.253 181.264 107.946 181.824 107.333C182.391 106.719 182.674 105.913 182.674 104.913C182.674 103.913 182.391 103.106 181.824 102.493C181.264 101.879 180.524 101.573 179.604 101.573C178.684 101.573 177.941 101.879 177.374 102.493C176.814 103.106 176.534 103.913 176.534 104.913C176.534 105.913 176.814 106.719 177.374 107.333ZM188.129 108.553C187.062 108.546 186.195 108.209 185.529 107.543C184.869 106.876 184.539 105.999 184.539 104.913C184.539 103.826 184.869 102.949 185.529 102.283C186.195 101.609 187.062 101.273 188.129 101.273C189.049 101.273 189.859 101.499 190.559 101.953L190.759 103.363H190.669C190.522 102.789 190.225 102.349 189.779 102.043C189.339 101.729 188.789 101.573 188.129 101.573C187.282 101.573 186.595 101.879 186.069 102.493C185.549 103.106 185.289 103.913 185.289 104.913C185.289 105.913 185.549 106.719 186.069 107.333C186.595 107.939 187.282 108.246 188.129 108.253C188.562 108.253 188.972 108.176 189.359 108.023C189.752 107.869 190.095 107.656 190.389 107.383V105.613C190.389 105.466 190.342 105.356 190.249 105.283C190.162 105.203 190.039 105.163 189.879 105.163H189.719V105.063H191.679V105.163H191.529C191.362 105.163 191.235 105.203 191.149 105.283C191.062 105.356 191.022 105.466 191.029 105.613V107.263C190.855 107.489 190.649 107.693 190.409 107.873C190.169 108.053 189.845 108.213 189.439 108.353C189.039 108.486 188.602 108.553 188.129 108.553ZM199.028 108.313H199.108V108.413H196.858V108.313H196.948C197.088 108.313 197.192 108.269 197.258 108.183C197.332 108.089 197.368 108.003 197.368 107.923C197.368 107.843 197.355 107.763 197.328 107.683L196.688 105.983H193.988L193.318 107.693C193.292 107.773 193.278 107.853 193.278 107.933C193.278 108.006 193.312 108.089 193.378 108.183C193.452 108.269 193.558 108.313 193.698 108.313H193.788V108.413H191.778V108.313H191.868C192.035 108.313 192.198 108.259 192.358 108.153C192.518 108.046 192.648 107.889 192.748 107.683L195.008 102.303C195.255 101.763 195.378 101.419 195.378 101.273H195.468L198.148 107.683C198.242 107.889 198.368 108.046 198.528 108.153C198.688 108.259 198.855 108.313 199.028 108.313ZM194.108 105.683H196.568L195.368 102.473L194.108 105.683ZM202.977 101.413C204.044 101.413 204.907 101.736 205.567 102.383C206.234 103.023 206.567 103.866 206.567 104.913C206.567 105.959 206.234 106.806 205.567 107.453C204.907 108.093 204.044 108.413 202.977 108.413H199.587V108.313H199.717C199.891 108.313 200.037 108.253 200.157 108.133C200.284 108.006 200.351 107.856 200.357 107.683V102.083C200.357 101.923 200.291 101.789 200.157 101.683C200.031 101.569 199.884 101.513 199.717 101.513H199.597L199.587 101.413H202.977ZM201.007 101.713V108.113H202.977C203.537 108.113 204.031 107.979 204.457 107.713C204.891 107.446 205.224 107.073 205.457 106.593C205.697 106.106 205.817 105.546 205.817 104.913C205.817 103.953 205.554 103.179 205.027 102.593C204.507 102.006 203.824 101.713 202.977 101.713H201.007ZM208.621 102.283C209.335 101.609 210.258 101.273 211.391 101.273C212.531 101.273 213.458 101.609 214.171 102.283C214.885 102.949 215.241 103.826 215.241 104.913C215.241 105.999 214.885 106.879 214.171 107.553C213.458 108.219 212.531 108.553 211.391 108.553C210.258 108.553 209.335 108.219 208.621 107.553C207.908 106.879 207.551 105.999 207.551 104.913C207.551 103.826 207.908 102.949 208.621 102.283ZM209.161 107.333C209.728 107.946 210.471 108.253 211.391 108.253C212.311 108.253 213.051 107.946 213.611 107.333C214.178 106.719 214.461 105.913 214.461 104.913C214.461 103.913 214.178 103.106 213.611 102.493C213.051 101.879 212.311 101.573 211.391 101.573C210.471 101.573 209.728 101.879 209.161 102.493C208.601 103.106 208.321 103.913 208.321 104.913C208.321 105.913 208.601 106.719 209.161 107.333Z" fill="white"/>
<path d="M228.178 102.283C228.892 101.609 229.815 101.273 230.948 101.273C232.088 101.273 233.015 101.609 233.728 102.283C234.442 102.949 234.798 103.826 234.798 104.913C234.798 105.999 234.442 106.879 233.728 107.553C233.015 108.219 232.088 108.553 230.948 108.553C229.815 108.553 228.892 108.219 228.178 107.553C227.465 106.879 227.108 105.999 227.108 104.913C227.108 103.826 227.465 102.949 228.178 102.283ZM228.718 107.333C229.285 107.946 230.028 108.253 230.948 108.253C231.868 108.253 232.608 107.946 233.168 107.333C233.735 106.719 234.018 105.913 234.018 104.913C234.018 103.913 233.735 103.106 233.168 102.493C232.608 101.879 231.868 101.573 230.948 101.573C230.028 101.573 229.285 101.879 228.718 102.493C228.158 103.106 227.878 103.913 227.878 104.913C227.878 105.913 228.158 106.719 228.718 107.333ZM241.993 108.313H242.073V108.413H239.823V108.313H239.913C240.053 108.313 240.157 108.269 240.223 108.183C240.297 108.089 240.333 108.003 240.333 107.923C240.333 107.843 240.32 107.763 240.293 107.683L239.653 105.983H236.953L236.283 107.693C236.257 107.773 236.243 107.853 236.243 107.933C236.243 108.006 236.277 108.089 236.343 108.183C236.417 108.269 236.523 108.313 236.663 108.313H236.753V108.413H234.743V108.313H234.833C235 108.313 235.163 108.259 235.323 108.153C235.483 108.046 235.613 107.889 235.713 107.683L237.973 102.303C238.22 101.763 238.343 101.419 238.343 101.273H238.433L241.113 107.683C241.207 107.889 241.333 108.046 241.493 108.153C241.653 108.259 241.82 108.313 241.993 108.313ZM237.073 105.683H239.533L238.333 102.473L237.073 105.683ZM244.993 108.413H242.553L242.563 108.313H242.683C242.856 108.313 243.003 108.253 243.123 108.133C243.249 108.013 243.316 107.866 243.323 107.693V102.133C243.316 101.959 243.249 101.813 243.123 101.693C243.003 101.573 242.856 101.513 242.683 101.513H242.563L242.553 101.413H244.543C245.229 101.413 245.763 101.566 246.143 101.873C246.523 102.173 246.713 102.576 246.713 103.083C246.713 103.483 246.606 103.816 246.393 104.083C246.179 104.343 245.919 104.516 245.613 104.603C246.139 104.683 246.556 104.899 246.863 105.253C247.169 105.606 247.323 106.053 247.323 106.593C247.323 107.126 247.116 107.563 246.703 107.903C246.296 108.243 245.726 108.413 244.993 108.413ZM243.973 108.043H244.953C244.959 108.043 244.966 108.043 244.973 108.043C245.479 108.043 245.873 107.906 246.153 107.633C246.433 107.359 246.573 106.969 246.573 106.463C246.573 106.176 246.523 105.926 246.423 105.713C246.329 105.493 246.209 105.319 246.063 105.193C245.676 104.873 245.096 104.713 244.323 104.713C244.323 104.713 244.319 104.713 244.313 104.713V104.623C245.193 104.623 245.723 104.296 245.903 103.643C245.943 103.496 245.963 103.333 245.963 103.153C245.963 102.699 245.836 102.349 245.583 102.103C245.336 101.856 244.976 101.733 244.503 101.733H243.973V108.043ZM247.882 108.363L251.492 101.273L251.802 101.453L248.192 108.553L247.882 108.363ZM252.484 108.003C252.464 107.909 252.454 107.729 252.454 107.463C252.454 107.196 252.504 106.913 252.604 106.613H252.694C252.688 106.686 252.684 106.759 252.684 106.833C252.684 107.239 252.808 107.579 253.054 107.853C253.301 108.119 253.628 108.253 254.034 108.253C254.454 108.253 254.798 108.126 255.064 107.873C255.338 107.619 255.474 107.303 255.474 106.923C255.474 106.536 255.344 106.223 255.084 105.983L253.164 104.203C252.804 103.869 252.624 103.466 252.624 102.993C252.624 102.519 252.781 102.116 253.094 101.783C253.414 101.443 253.844 101.273 254.384 101.273C254.638 101.273 254.924 101.306 255.244 101.373H255.634V102.603H255.544C255.544 102.289 255.434 102.039 255.214 101.853C255.001 101.666 254.724 101.573 254.384 101.573C254.044 101.573 253.758 101.686 253.524 101.913C253.298 102.139 253.184 102.423 253.184 102.763C253.184 103.103 253.318 103.396 253.584 103.643L255.554 105.463C255.888 105.769 256.054 106.189 256.054 106.723C256.054 107.256 255.884 107.696 255.544 108.043C255.204 108.383 254.751 108.553 254.184 108.553C253.891 108.553 253.578 108.506 253.244 108.413C252.918 108.326 252.664 108.189 252.484 108.003ZM261.9 103.343C261.9 103.636 261.84 103.909 261.72 104.163C261.5 104.636 261.114 104.966 260.56 105.153C260.367 105.219 260.2 105.253 260.06 105.253C259.647 105.253 259.29 105.176 258.99 105.023V104.923C259.477 105.029 259.927 104.976 260.34 104.763C260.707 104.576 260.957 104.269 261.09 103.843C261.13 103.709 261.15 103.583 261.15 103.463C261.15 103.343 261.15 103.269 261.15 103.243C261.137 102.776 261.014 102.406 260.78 102.133C260.547 101.853 260.22 101.713 259.8 101.713H258.65V107.683C258.657 107.856 258.72 108.006 258.84 108.133C258.967 108.253 259.117 108.313 259.29 108.313H259.42V108.413H257.23V108.313H257.36C257.534 108.313 257.68 108.253 257.8 108.133C257.927 108.006 257.994 107.856 258 107.683V102.093C257.98 101.926 257.91 101.789 257.79 101.683C257.67 101.569 257.527 101.513 257.36 101.513H257.24L257.23 101.413H259.84C260.48 101.413 260.984 101.586 261.35 101.933C261.717 102.273 261.9 102.743 261.9 103.343ZM269.062 106.923V108.783C269.062 108.929 269.102 109.039 269.182 109.113C269.315 109.246 269.458 109.313 269.612 109.313H269.722V109.413H267.742L267.752 109.313H267.852C268.005 109.313 268.135 109.263 268.242 109.163C268.348 109.063 268.405 108.939 268.412 108.793V106.923H265.302V106.823L268.962 102.273H269.062V106.373H269.492C269.665 106.373 269.782 106.359 269.842 106.333C269.908 106.306 269.975 106.253 270.042 106.173H270.142L269.932 106.923H269.062ZM268.412 106.373V103.453L266.052 106.373H268.412ZM273.692 104.743C273.212 104.743 272.842 104.916 272.582 105.263L272.522 105.173C272.729 104.926 272.969 104.733 273.242 104.593C273.515 104.446 273.792 104.373 274.072 104.373C274.352 104.373 274.615 104.433 274.862 104.553C275.109 104.673 275.319 104.879 275.492 105.173C275.685 105.526 275.782 105.956 275.782 106.463C275.782 106.969 275.595 107.443 275.222 107.883C274.842 108.336 274.315 108.563 273.642 108.563C272.975 108.563 272.432 108.313 272.012 107.813C271.592 107.306 271.382 106.626 271.382 105.773C271.382 105.046 271.505 104.336 271.752 103.643C271.992 102.976 272.362 102.406 272.862 101.933C273.369 101.446 273.995 101.159 274.742 101.073L274.782 101.143C274.315 101.289 273.909 101.513 273.562 101.813C273.222 102.113 272.949 102.469 272.742 102.883C272.335 103.683 272.132 104.619 272.132 105.693C272.132 106.473 272.265 107.096 272.532 107.563C272.799 108.029 273.169 108.263 273.642 108.263C274.115 108.263 274.465 108.086 274.692 107.733C274.919 107.373 275.032 106.946 275.032 106.453C275.032 105.726 274.825 105.226 274.412 104.953C274.212 104.813 273.972 104.743 273.692 104.743ZM281.248 106.663C281.248 107.223 281.051 107.679 280.658 108.033C280.264 108.379 279.738 108.553 279.078 108.553C278.424 108.553 277.901 108.379 277.508 108.033C277.121 107.679 276.928 107.236 276.928 106.703C276.928 106.243 277.051 105.859 277.298 105.553C277.544 105.239 277.901 104.973 278.368 104.753C277.648 104.233 277.288 103.629 277.288 102.943C277.288 102.463 277.451 102.066 277.778 101.753C278.111 101.433 278.548 101.273 279.088 101.273C279.628 101.273 280.061 101.423 280.388 101.723C280.721 102.023 280.888 102.436 280.888 102.963C280.888 103.363 280.781 103.716 280.568 104.023C280.354 104.323 280.051 104.543 279.658 104.683C280.264 104.983 280.681 105.283 280.908 105.583C281.134 105.896 281.248 106.256 281.248 106.663ZM278.038 102.813C278.038 103.466 278.381 103.989 279.068 104.383L279.288 104.503C279.854 104.083 280.138 103.543 280.138 102.883C280.138 102.483 280.044 102.166 279.858 101.933C279.671 101.693 279.414 101.573 279.088 101.573C278.761 101.573 278.504 101.696 278.318 101.943C278.131 102.183 278.038 102.473 278.038 102.813ZM277.678 106.733C277.678 107.193 277.801 107.563 278.048 107.843C278.301 108.116 278.651 108.253 279.098 108.253C279.551 108.253 279.898 108.113 280.138 107.833C280.378 107.546 280.498 107.203 280.498 106.803C280.498 106.563 280.468 106.386 280.408 106.273C280.354 106.153 280.304 106.059 280.258 105.993C280.218 105.926 280.161 105.863 280.088 105.803C280.021 105.736 279.961 105.683 279.908 105.643C279.854 105.596 279.781 105.549 279.688 105.503C279.601 105.449 279.531 105.409 279.478 105.383C279.424 105.349 279.348 105.309 279.248 105.263C279.014 105.143 278.821 105.036 278.668 104.943C278.008 105.389 277.678 105.986 277.678 106.733ZM283.065 108.323C282.979 108.409 282.872 108.453 282.745 108.453C282.619 108.453 282.512 108.409 282.425 108.323C282.339 108.236 282.295 108.129 282.295 108.003C282.295 107.876 282.339 107.769 282.425 107.683C282.512 107.596 282.619 107.553 282.745 107.553C282.872 107.553 282.979 107.596 283.065 107.683C283.152 107.769 283.195 107.876 283.195 108.003C283.195 108.129 283.152 108.236 283.065 108.323ZM284.712 104.903C285.086 104.823 285.422 104.783 285.722 104.783C286.029 104.783 286.312 104.829 286.572 104.923C287.432 105.229 287.862 105.843 287.862 106.763C287.862 107.136 287.799 107.476 287.672 107.783C287.552 108.083 287.402 108.329 287.222 108.523C287.042 108.723 286.839 108.903 286.612 109.063C286.386 109.223 286.156 109.346 285.922 109.433C285.329 109.639 284.892 109.743 284.612 109.743C284.452 109.743 284.292 109.736 284.132 109.723L284.152 109.623C284.166 109.623 284.216 109.623 284.302 109.623C284.396 109.623 284.556 109.589 284.782 109.523C285.009 109.463 285.252 109.359 285.512 109.213C285.779 109.066 286.026 108.893 286.252 108.693C286.479 108.493 286.672 108.239 286.832 107.933C287.019 107.573 287.112 107.203 287.112 106.823C287.112 106.436 286.996 106.106 286.762 105.833C286.476 105.499 286.039 105.333 285.452 105.333C285.106 105.333 284.719 105.396 284.292 105.523L284.202 105.483L284.982 102.773L286.962 102.623C287.322 102.623 287.586 102.456 287.752 102.123H287.852L287.522 103.173L285.172 103.323L284.712 104.903ZM290.996 102.273C291.67 102.273 292.206 102.426 292.606 102.733C293.006 103.039 293.206 103.456 293.206 103.983C293.206 104.443 293.04 104.903 292.706 105.363C292.586 105.529 292.48 105.673 292.386 105.793C292.3 105.906 292.17 106.046 291.996 106.213C291.83 106.379 291.7 106.509 291.606 106.603C291.513 106.689 291.37 106.813 291.176 106.973C290.983 107.133 290.85 107.243 290.776 107.303C290.703 107.356 290.57 107.456 290.376 107.603C290.19 107.749 290.083 107.833 290.056 107.853H292.396C292.683 107.853 292.903 107.803 293.056 107.703C293.216 107.596 293.39 107.399 293.576 107.113H293.676L293.196 108.413H289.046V108.323C291.32 106.456 292.456 105.016 292.456 104.003C292.456 103.543 292.326 103.186 292.066 102.933C291.813 102.673 291.47 102.543 291.036 102.543C290.543 102.543 290.153 102.659 289.866 102.893C289.586 103.119 289.453 103.443 289.466 103.863H289.366L289.196 102.843C289.383 102.676 289.646 102.539 289.986 102.433C290.333 102.326 290.67 102.273 290.996 102.273ZM296.954 104.743C296.474 104.743 296.104 104.916 295.844 105.263L295.784 105.173C295.99 104.926 296.23 104.733 296.504 104.593C296.777 104.446 297.054 104.373 297.334 104.373C297.614 104.373 297.877 104.433 298.124 104.553C298.37 104.673 298.58 104.879 298.754 105.173C298.947 105.526 299.044 105.956 299.044 106.463C299.044 106.969 298.857 107.443 298.484 107.883C298.104 108.336 297.577 108.563 296.904 108.563C296.237 108.563 295.694 108.313 295.274 107.813C294.854 107.306 294.644 106.626 294.644 105.773C294.644 105.046 294.767 104.336 295.014 103.643C295.254 102.976 295.624 102.406 296.124 101.933C296.63 101.446 297.257 101.159 298.004 101.073L298.044 101.143C297.577 101.289 297.17 101.513 296.824 101.813C296.484 102.113 296.21 102.469 296.004 102.883C295.597 103.683 295.394 104.619 295.394 105.693C295.394 106.473 295.527 107.096 295.794 107.563C296.06 108.029 296.43 108.263 296.904 108.263C297.377 108.263 297.727 108.086 297.954 107.733C298.18 107.373 298.294 106.946 298.294 106.453C298.294 105.726 298.087 105.226 297.674 104.953C297.474 104.813 297.234 104.743 296.954 104.743Z" fill="white"/>
<path d="M218.683 110.036L224.599 97.619" stroke="white" stroke-width="0.25" stroke-miterlimit="10"/>
</g>
<defs>
<clipPath id="clip0_31_58">
<rect width="320" height="150" fill="white"/>
</clipPath>
</defs>
</svg>
