<svg width="60" height="60" viewBox="0 0 60 60" fill="none" xmlns="http://www.w3.org/2000/svg">
<g clip-path="url(#clip0_100_26)">
<path d="M57.3047 11.4844L29.6953 0.140625L2.34375 11.7422V19.8047H57.3047V11.4844ZM30.8906 15.6797V17.6016H29.0391V15.7969C27.9844 15.75 27 15.4922 26.4844 15.2109L26.9531 13.2891C27.5625 13.5938 28.5234 13.9219 29.5312 13.9219C30.6328 13.9219 31.1484 13.4531 31.1484 12.7734C31.1484 12.0938 30.6328 11.8359 29.3906 11.3672C27.6563 10.7578 26.5547 9.89063 26.5547 8.32031C26.5547 6.9375 27.4453 5.85938 29.0156 5.4375V3.51563H30.8672V5.32031C31.8047 5.36719 32.4609 5.55469 32.9766 5.83594L32.4609 7.71094C32.0391 7.54688 31.3125 7.24219 30.375 7.24219C29.4141 7.24219 28.8984 7.71094 28.8984 8.20313C28.8984 8.83594 29.5078 9.11719 30.8203 9.63281C32.6016 10.2656 33.4453 11.2031 33.4453 12.6797C33.4219 14.1094 32.6016 15.2109 30.8906 15.6797ZM57.6094 54.1172V49.5H55.3125V26.8359H57.6094V22.2422H2.32031V26.8594H4.6875V49.5234H2.29688V54.1172H0V59.9297H59.9063V54.1172H57.6094ZM9.30469 49.5469V26.8828H13.9219V49.5469H9.30469ZM18.4922 49.5469V26.8828H23.1094V49.5469H18.4922ZM27.7266 49.5469V26.8828H32.3438V49.5469H27.7266ZM36.9141 49.5469V26.8828H41.5312V49.5469H36.9141ZM46.125 49.5469V26.8828H50.7422V49.5469H46.125Z" fill="white"/>
</g>
<defs>
<clipPath id="clip0_100_26">
<rect width="60" height="60" fill="white"/>
</clipPath>
</defs>
</svg>
