<svg width="61" height="61" viewBox="0 0 61 61" fill="none" xmlns="http://www.w3.org/2000/svg">
<path d="M5.55588 0.125L8.2329 2.77206C8.75696 3.29356 9.13184 3.94298 9.31938 4.6542C9.50692 5.36541 9.50043 6.11304 9.30058 6.82097C9.10072 7.52891 8.71462 8.17187 8.18159 8.68442C7.64857 9.19696 6.98764 9.56079 6.26608 9.73887L8.62321 12.0683C9.63285 11.5458 10.5041 10.796 11.1665 9.87948C11.8289 8.96296 12.2641 7.90538 12.4368 6.79207C12.6095 5.67877 12.5149 4.54093 12.1607 3.4704C11.8065 2.39986 11.2026 1.42661 10.3977 0.629202L9.88723 0.125H5.55588ZM3.98051 1.43466C2.97032 1.95434 2.09827 2.70197 1.43508 3.61693C0.771889 4.53189 0.336227 5.58843 0.163418 6.70087C-0.0093906 7.81331 0.0855193 8.95035 0.440451 10.0198C0.795383 11.0892 1.40035 12.0609 2.20629 12.8561L13.4307 23.941C13.5542 22.7884 13.8783 21.6656 14.3886 20.6221L4.37068 10.7132C3.58564 9.93524 3.14543 8.88096 3.14686 7.78226C3.1483 6.68355 3.59126 5.6304 4.37834 4.85441C4.90612 4.30829 5.58951 3.93373 6.33776 3.78046L3.98051 1.43466ZM14.4996 4.68424C14.532 4.97504 14.5506 5.26912 14.5557 5.5666C14.5728 6.58593 14.4185 7.601 14.0991 8.57038L23.3873 17.7494C23.9638 18.326 24.3572 19.0566 24.5192 19.8513C24.6813 20.6459 24.6048 21.47 24.2992 22.2223C23.9937 22.9746 23.4724 23.6223 22.7993 24.0857C22.1263 24.5492 21.331 24.8082 20.511 24.8309C20.4812 25.266 20.5461 25.7023 20.7015 26.1104C20.8568 26.5186 21.099 26.8891 21.4115 27.1969L21.9217 27.7011C23.2005 27.432 24.3822 26.8271 25.3423 25.9501C26.3025 25.0731 27.0056 23.9565 27.3776 22.7178C27.7495 21.4792 27.7766 20.1643 27.456 18.9117C27.1354 17.6591 26.4789 16.5151 25.5556 15.6002L14.4996 4.68424ZM31.9292 7.82189L31.8118 13.981L34.8725 14.0381L34.9899 7.87912L31.9292 7.82189ZM42.388 9.27059L38.8597 14.9648L41.4704 16.5446L44.9985 10.8504L42.388 9.27059ZM50.0432 16.0632L44.3405 18.678L45.6287 21.4224L51.3317 18.8076L50.0432 16.0632ZM20.3707 17.6271C19.6211 17.939 18.9233 18.3605 18.3006 18.8775C18.121 19.0257 17.9482 19.1818 17.7827 19.3452C16.3536 20.761 15.5067 22.6504 15.4059 24.6477C15.3051 26.6451 15.9574 28.6084 17.2368 30.1578C17.4133 30.3716 17.6006 30.5765 17.798 30.7716L29.5518 42.3872C30.0723 42.9017 30.6605 43.3448 31.3005 43.7044C30.6068 42.2353 30.3169 40.6115 30.4599 38.9964L19.9664 28.6263C19.8427 28.5061 19.7252 28.3799 19.6143 28.2481C19.5057 28.1168 19.404 27.98 19.3095 27.8384C18.6574 26.8693 18.3646 25.707 18.4808 24.5489C18.5971 23.3907 19.1152 22.3079 19.9472 21.4842C20.0493 21.3834 20.1551 21.2889 20.2636 21.1994C20.9049 20.6646 21.6699 20.2944 22.4906 20.1216C22.3934 19.7642 22.2029 19.4382 21.9383 19.1763L20.3707 17.6271ZM29.4701 18.6078C29.7201 19.6821 29.7741 20.792 29.6296 21.8851L31.8477 22.688C32.0388 22.7697 32.2447 22.8121 32.453 22.8124C32.6612 22.8128 32.8673 22.7711 33.0587 22.6901C33.25 22.609 33.4227 22.4902 33.566 22.3409C33.7093 22.1916 33.8203 22.015 33.8921 21.8219C33.964 21.6287 33.9952 21.4231 33.9839 21.2177C33.9726 21.0122 33.919 20.8112 33.8263 20.6269C33.7337 20.4426 33.604 20.2789 33.4452 20.1459C33.2863 20.0129 33.1017 19.9132 32.9025 19.8532V19.8569L29.4701 18.6078ZM47.0351 25.1669L46.9422 28.1906L52.7634 28.3655L52.8563 25.3418L47.0351 25.1669ZM39.2356 26.5346C38.9896 26.5337 38.747 26.5915 38.5283 26.7031C38.3097 26.8146 38.1215 26.9766 37.9797 27.1753C37.8378 27.3739 37.7466 27.6035 37.7136 27.8445C37.6806 28.0854 37.7069 28.3307 37.7902 28.5595L40.1333 34.9275C40.4634 35.8333 40.5254 36.8133 40.3122 37.7527C40.0989 38.6921 39.6192 39.552 38.9293 40.2317L38.9178 40.2431C38.6277 40.5297 38.3039 40.781 37.9535 40.9918C38.0257 41.0959 38.1073 41.1933 38.1971 41.283L40.1282 43.1914C40.4666 42.946 40.7855 42.6754 41.0823 42.3821L41.0938 42.3708C42.1948 41.2827 42.9594 39.9073 43.2982 38.4054C43.637 36.9035 43.536 35.3373 43.007 33.8901L40.6576 27.5158C40.5882 27.3265 40.481 27.1529 40.3425 27.0053C40.0901 26.744 39.7519 26.58 39.3884 26.5426C39.3377 26.5374 39.2867 26.5348 39.2356 26.5346ZM37.266 33.0557C36.1197 33.4693 35.0972 34.1615 34.2928 35.0684C33.4883 35.9752 32.9278 37.0676 32.6629 38.2448C32.3979 39.4221 32.4371 40.6463 32.7768 41.8046C33.1165 42.9629 33.7458 44.0181 34.6066 44.8729L35.1538 45.4137L45.4853 55.6237C45.3535 54.3203 45.4898 53.004 45.8859 51.754V51.7477L39.2162 45.1565L36.7647 42.7338C36.2755 42.2476 35.9155 41.6494 35.7167 40.9924C35.5179 40.3355 35.4866 39.6401 35.6255 38.9683C35.7643 38.2965 36.0691 37.669 36.5127 37.1417C36.9562 36.6144 37.5248 36.2037 38.1678 35.946C38.1678 35.9334 38.1601 35.9195 38.155 35.9069L38.1869 35.9384C38.2711 35.9057 38.3566 35.8754 38.442 35.8477C38.4431 35.8385 38.4431 35.8292 38.442 35.82C38.3885 35.8376 38.3336 35.854 38.28 35.8729C38.2673 35.7973 38.2405 35.7078 38.2112 35.6246L37.266 33.0557ZM45.4458 35.2616L45.4381 35.2691C45.5038 35.744 45.5349 36.223 45.5313 36.7023C45.5234 37.1361 45.4915 37.5691 45.4356 37.9994C45.3783 38.4304 45.2931 38.8573 45.1805 39.2775L51.8501 45.8687L55.7927 49.7649C56.3174 50.2864 56.6928 50.936 56.8808 51.6475C57.0687 52.3591 57.0624 53.1071 56.8625 53.8155C56.6626 54.5238 56.2762 55.1672 55.7428 55.6799C55.2094 56.1926 54.5479 56.5564 53.8259 56.7342L56.183 59.0637C57.1924 58.5411 58.0633 57.7913 58.7256 56.8749C59.3879 55.9585 59.8229 54.9011 59.9956 53.7879C60.1682 52.6748 60.0737 51.5372 59.7196 50.4668C59.3656 49.3964 58.7618 48.4232 57.9572 47.6258L55.7774 45.4716L45.4458 35.2616ZM51.1894 48.0683C50.536 48.4023 49.9399 48.8357 49.4228 49.3527C48.0622 50.6997 47.2975 52.5247 47.296 54.4279C47.2946 56.331 48.0566 58.1572 49.4152 59.5061L50.0402 60.125H54.366L51.5759 57.367C51.0512 56.8453 50.6758 56.1954 50.4881 55.4837C50.3004 54.7719 50.3071 54.0236 50.5074 53.3152C50.7077 52.6068 51.0945 51.9635 51.6284 51.451C52.1623 50.9385 52.8242 50.575 53.5465 50.3977L51.1894 48.0683Z" fill="white"/>
</svg>
