<svg width="60" height="60" viewBox="0 0 60 60" fill="none" xmlns="http://www.w3.org/2000/svg">
<path fill-rule="evenodd" clip-rule="evenodd" d="M42 45C42 46.656 40.656 48 39 48H30C28.344 48 27 46.656 27 45C27 43.344 28.344 42 30 42H39C40.656 42 42 43.344 42 45ZM42 36C42 37.656 40.656 39 39 39H30C28.344 39 27 37.656 27 36C27 34.344 28.344 33 30 33H39C40.656 33 42 34.344 42 36ZM42 27C42 28.656 40.656 30 39 30H30C28.344 30 27 28.656 27 27C27 25.344 28.344 24 30 24H39C40.656 24 42 25.344 42 27ZM24 45C24 46.656 22.656 48 21 48C19.344 48 18 46.656 18 45C18 43.344 19.344 42 21 42C22.656 42 24 43.344 24 45ZM24 36C24 37.656 22.656 39 21 39C19.344 39 18 37.656 18 36C18 34.344 19.344 33 21 33C22.656 33 24 34.344 24 36ZM24 27C24 28.656 22.656 30 21 30C19.344 30 18 28.656 18 27C18 25.344 19.344 24 21 24C22.656 24 24 25.344 24 27ZM45 51C45 52.656 43.656 54 42 54H18C16.344 54 15 52.656 15 51V13.5C15 12.672 15.672 12 16.5 12H18C18 15.312 20.685 18 24 18H36C39.315 18 42 15.312 42 12H43.5C44.328 12 45 12.672 45 13.5V51ZM24 9C24 7.344 25.344 6 27 6H33C34.656 6 36 7.344 36 9C36 10.656 34.656 12 33 12H27C25.344 12 24 10.656 24 9ZM45 6H42C42 2.685 39.315 0 36 0H24C20.685 0 18 2.685 18 6H15C11.685 6 9 8.685 9 12V54C9 57.312 11.685 60 15 60H45C48.315 60 51 57.312 51 54V12C51 8.685 48.315 6 45 6Z" fill="white"/>
</svg>
