<svg width="60" height="60" viewBox="0 0 60 60" fill="none" xmlns="http://www.w3.org/2000/svg">
<path d="M20.625 52.5C22.6961 52.5 24.375 50.8211 24.375 48.75C24.375 46.6789 22.6961 45 20.625 45C18.5539 45 16.875 46.6789 16.875 48.75C16.875 50.8211 18.5539 52.5 20.625 52.5Z" fill="white"/>
<path d="M46.875 52.5C48.9461 52.5 50.625 50.8211 50.625 48.75C50.625 46.6789 48.9461 45 46.875 45C44.8039 45 43.125 46.6789 43.125 48.75C43.125 50.8211 44.8039 52.5 46.875 52.5Z" fill="white"/>
<path d="M53.5312 14.1539C53.2678 13.8317 52.936 13.5722 52.5598 13.3942C52.1835 13.2162 51.7724 13.1243 51.3562 13.125H15.6902L14.9719 9.04922C14.8953 8.61507 14.6682 8.2218 14.3304 7.93848C13.9926 7.65516 13.5659 7.49991 13.125 7.5H5.625C5.12772 7.5 4.65081 7.69754 4.29917 8.04918C3.94754 8.40081 3.75 8.87772 3.75 9.375C3.75 9.87228 3.94754 10.3492 4.29917 10.7008C4.65081 11.0525 5.12772 11.25 5.625 11.25H11.5523L16.9031 41.5758C16.9797 42.0099 17.2068 42.4032 17.5446 42.6865C17.8824 42.9698 18.3091 43.1251 18.75 43.125H48.75C49.2473 43.125 49.7242 42.9275 50.0758 42.5758C50.4275 42.2242 50.625 41.7473 50.625 41.25C50.625 40.7527 50.4275 40.2758 50.0758 39.9242C49.7242 39.5725 49.2473 39.375 48.75 39.375H20.3227L19.6617 35.625H47.9813C48.6315 35.6242 49.2615 35.3987 49.7646 34.9868C50.2677 34.5749 50.6131 34.0017 50.7422 33.3645L54.1172 16.4895C54.1985 16.0811 54.1881 15.6597 54.0868 15.2558C53.9855 14.8519 53.7957 14.4755 53.5312 14.1539Z" fill="white"/>
</svg>
