<svg width="60" height="60" viewBox="0 0 60 60" fill="none" xmlns="http://www.w3.org/2000/svg">
<g clip-path="url(#clip0_100_89)">
<path d="M34.4751 3.76367V12.2353H42.9467L34.4751 3.76367Z" fill="white"/>
<path d="M27.4254 54.8508L32.3784 38.5206L46.7103 24.1888V15.3371H32.9056C32.0474 15.3371 31.3364 14.6261 31.3364 13.7679V0H0.674316V60H46.7716V46.9064L41.9657 51.7123L27.4254 54.8508ZM7.66246 8.86392H26.8983C27.7565 8.86392 28.4675 9.57499 28.4675 10.4332C28.4675 11.2914 27.7565 12.0025 26.8983 12.0025H7.66246C6.80427 12.0025 6.0932 11.2914 6.0932 10.4332C6.0932 9.57499 6.81653 8.86392 7.66246 8.86392ZM7.66246 18.3286H26.8983C27.7565 18.3286 28.4675 19.0396 28.4675 19.8978C28.4675 20.756 27.7565 21.4671 26.8983 21.4671H7.66246C6.80427 21.4671 6.0932 20.756 6.0932 19.8978C6.0932 19.0029 6.81653 18.3286 7.66246 18.3286ZM7.66246 30.8582C6.80427 30.8582 6.0932 30.1471 6.0932 29.2889C6.0932 28.4307 6.80427 27.7197 7.66246 27.7197H26.8983C27.7565 27.7197 28.4675 28.4307 28.4675 29.2889C28.4675 30.1471 27.7565 30.8582 26.8983 30.8582H7.66246Z" fill="white"/>
<path d="M52.4233 22.9016L36.2402 39.097L43.1916 46.0483L59.3256 29.853L52.4233 22.9016Z" fill="white"/>
<path d="M40.3844 47.6174L34.6222 41.8552L32.0967 50.192L40.3844 47.6174Z" fill="white"/>
</g>
<defs>
<clipPath id="clip0_100_89">
<rect width="60" height="60" fill="white"/>
</clipPath>
</defs>
</svg>
