<svg width="60" height="61" viewBox="0 0 60 61" fill="none" xmlns="http://www.w3.org/2000/svg">
<path d="M11.2096 29.4681L11.8095 29.4161C11.4879 25.3789 12.6581 21.2138 15.0205 17.9869L14.5419 17.6086C12.0904 20.9573 10.8761 25.2792 11.2096 29.4681Z" fill="white"/>
<path d="M15.8182 16.064L16.251 16.4977C17.1776 15.5023 18.2273 14.6277 19.3729 13.8968L19.0581 13.3643C17.8701 14.1225 16.7805 15.0306 15.8182 16.064Z" fill="white"/>
<path d="M38.9742 51.2272L39.5435 51.0276L38.6414 48.2499L38.0722 48.4495L38.9742 51.2272Z" fill="white"/>
<path d="M34.9963 38.785L37.7762 47.3481L38.3455 47.1486L35.5655 38.5855L34.9963 38.785Z" fill="white"/>
<path d="M58.7337 36.5039L58.6531 36.4139L49.2756 35.7324C50.2684 32.9163 50.8208 29.8824 50.8208 26.7119C50.8208 12.1536 39.4211 0.310059 25.4104 0.310059C11.3997 0.310059 0 12.1536 0 26.7119C0 41.2702 11.3997 53.1138 25.4104 53.1138C29.6176 53.1138 33.5838 52.0364 37.0816 50.1478C37.2564 50.6971 37.4321 51.2508 37.6052 51.7957C38.0533 53.2028 38.5013 54.61 38.9459 56.018C39.4458 57.598 40.0924 59.3411 41.4357 60.0235C41.8107 60.214 42.224 60.3101 42.6703 60.3101C43.1141 60.3101 43.5927 60.2157 44.101 60.027L44.1808 59.9927L44.2588 59.9609L44.3445 59.9292C45.3416 59.4972 46.0035 58.8694 46.3107 58.0644C46.8623 56.6202 46.2106 54.8789 45.5563 53.3615C44.9784 52.0196 44.4031 50.676 43.8269 49.3323C43.3848 48.2998 42.9376 47.2577 42.4879 46.2103C44.1757 44.6135 45.6547 42.7858 46.8826 40.7747C49.2399 41.4333 51.5769 42.0329 53.4438 42.1757C53.7433 42.1986 54.0539 42.2101 54.3712 42.2101C56.1278 42.2101 58.0676 41.8459 59.0562 40.9599C59.6476 40.4291 59.9642 39.834 59.9973 39.1912C60.038 38.3739 59.6247 37.4949 58.7337 36.5039ZM25.4104 52.2392C11.863 52.2392 0.841781 40.7879 0.841781 26.7119C0.841781 12.6359 11.863 1.18468 25.4104 1.18468C38.9578 1.18468 49.979 12.6359 49.979 26.7119C49.979 29.8648 49.4181 32.881 48.4058 35.6689L46.9456 35.5627C47.9968 32.8222 48.5831 29.8386 48.5831 26.7119C48.5831 13.4356 38.1882 2.63416 25.4104 2.63416C12.6318 2.63416 2.23683 13.4347 2.23683 26.7119C2.23683 39.9891 12.6318 50.7897 25.4104 50.7897C29.376 50.7897 33.1069 49.7429 36.3739 47.911C36.5212 48.3763 36.6682 48.8451 36.8152 49.3085C33.4039 51.175 29.526 52.2392 25.4104 52.2392ZM37.6739 26.3363L37.6222 26.1891C36.2161 22.1792 34.67 18.0327 32.8956 13.5123C32.692 12.9939 32.4671 12.8061 31.9648 12.4711L31.8366 12.3846L30.355 12.9798L34.5877 24.3499L33.9097 24.625L29.677 13.2531L27.5717 14.0995L31.8171 25.5031C31.5821 25.5948 31.2672 25.7227 31.033 25.8179L26.7885 14.4143L24.6832 15.2607L28.9159 26.6326L28.2701 26.89L24.0366 15.5199L22.555 16.1159L22.5151 16.2693C22.4854 16.3866 22.4591 16.4748 22.4379 16.5462C22.3394 16.8777 22.3327 16.9791 22.4786 17.3917C24.09 21.9685 25.6327 26.1168 27.1924 30.0729L27.3384 30.4573C27.8322 31.7754 28.2964 32.8722 28.9753 32.9445C30.4509 33.1015 31.3555 33.6631 31.9699 34.4716L13.7451 33.1447L13.7316 33.1438H13.7171C13.4337 33.1499 13.1494 33.1561 12.8669 33.1579L12.4248 33.1605L12.5885 33.5855C13.6611 36.3707 16.7058 38.6119 21.1625 39.8974C21.4086 39.9688 21.6623 40.0217 21.9118 40.0852L21.916 40.0888L21.9177 40.087C22.4022 40.2104 22.8902 40.3215 23.3832 40.4176L23.5113 40.5173L23.5605 40.4494C25.3875 40.7915 27.245 40.9484 29.0296 40.9272L29.128 41.0039L29.184 40.9264C30.9142 40.8964 32.5613 40.7033 34.0234 40.3515C34.1303 40.7051 34.2381 41.0577 34.3467 41.4113C31.7569 43.1173 28.6978 44.1198 25.4104 44.1198C16.1703 44.1198 8.65286 36.3099 8.65286 26.7093C8.65286 17.1087 16.1703 9.29877 25.4104 9.29877C34.6505 9.29877 42.168 17.1087 42.168 26.7093C42.168 29.7387 41.4076 32.5813 40.089 35.0605L37.427 34.8666C36.609 33.0433 36.2517 31.3363 37.9879 29.3217C38.4724 28.7592 38.116 27.5883 37.6739 26.3363ZM30.7997 37.8625L29.027 40.3153C28.573 40.3198 28.1165 40.3153 27.6532 40.2968L29.313 38.0009L28.9286 37.7003L27.0753 40.2642C26.6408 40.2369 26.2064 40.1998 25.7685 40.1522L27.441 37.8387L27.0566 37.5381L25.2144 40.087C24.7969 40.0332 24.3828 39.9671 23.967 39.8939L25.5691 37.6765L25.1847 37.3758L23.4349 39.7969C23.0582 39.722 22.6857 39.6365 22.3131 39.5456L23.7905 37.5019L23.4061 37.2013L21.804 39.4178C21.6453 39.3755 21.4832 39.3429 21.3262 39.2979C21.0954 39.2309 20.8824 39.1533 20.6601 39.0819L21.9186 37.3406L21.5341 37.0399L20.1722 38.9232C19.7954 38.7927 19.4365 38.6516 19.086 38.507L20.0466 37.1783L19.6622 36.8777L18.621 38.3183C18.2629 38.1588 17.9269 37.9877 17.5985 37.8131L18.1747 37.0161L17.7903 36.7155L17.1666 37.5777C15.3413 36.5277 14.0235 35.2386 13.331 33.7786C13.46 33.7768 13.589 33.7733 13.718 33.7706L32.3865 35.1302C32.815 35.9475 33.0713 36.9271 33.3403 37.9683C33.4557 38.4153 33.5711 38.8641 33.7043 39.3041C33.751 39.4584 33.7994 39.6135 33.846 39.7678C32.5656 40.0747 31.1408 40.2633 29.632 40.3136L31.1858 38.1649L30.7997 37.8625ZM42.6483 26.7119C42.6483 16.8362 34.9152 8.80151 25.4104 8.80151C15.9056 8.80151 8.17257 16.8362 8.17257 26.7119C8.17257 36.5876 15.9056 44.6223 25.4104 44.6223C28.747 44.6223 31.8536 43.6146 34.4952 41.9015C35.0629 43.7495 35.6416 45.5924 36.221 47.4267C33.0045 49.2468 29.3238 50.2889 25.4104 50.2889C12.8983 50.2889 2.71797 39.7123 2.71797 26.7119C2.71797 13.7116 12.8983 3.13496 25.4104 3.13496C37.9226 3.13496 48.102 13.7116 48.102 26.7119C48.102 29.8293 47.5074 32.8023 46.4428 35.5261L40.604 35.1011C41.8973 32.5971 42.6483 29.7484 42.6483 26.7119ZM43.2779 49.5853C43.8524 50.9299 44.4286 52.2736 45.0073 53.6164C45.6106 55.0182 46.2165 56.6158 45.7515 57.8343C45.502 58.4859 44.9657 58.9831 44.1112 59.3526L44.0026 59.3922L43.8957 59.439C43.0233 59.7625 42.3063 59.7696 41.6996 59.4619C40.5659 58.8861 39.9795 57.2806 39.5179 55.8223C39.0724 54.4143 38.6243 53.0071 38.1763 51.5991C36.8771 47.5143 35.533 43.2901 34.2763 39.1154C34.1473 38.6834 34.0327 38.2425 33.9199 37.8034C33.2716 35.296 32.602 32.7021 29.0355 32.3229C28.6672 32.2841 28.1089 30.7923 27.8984 30.2298L27.7482 29.8357C26.1911 25.8867 24.6526 21.7454 23.0429 17.1766C22.9538 16.9244 22.9538 16.9244 23.0115 16.7296C23.0242 16.6872 23.0378 16.6396 23.0539 16.5841L23.6929 16.3275L27.9247 27.6959L29.694 26.9914L25.4596 15.6178L26.4431 15.2228L30.6953 26.6432L30.9838 26.5127C31.1434 26.4404 32.1302 26.0436 32.3042 25.9819L32.6012 25.877L28.349 14.4575L29.3325 14.0625L33.5669 25.4353L35.365 24.7061L31.1323 13.3377L31.7679 13.0829C32.1124 13.3201 32.2134 13.4312 32.339 13.7486C34.1108 18.261 35.6543 22.4005 37.0579 26.4025L37.1105 26.5506C37.3057 27.1043 37.825 28.574 37.5416 28.9038C35.1486 31.6784 36.3332 34.0651 37.4788 36.3734C37.679 36.7772 37.8801 37.1819 38.0634 37.5927C39.8437 41.5691 41.5892 45.6442 43.2779 49.5853ZM39.2794 38.8456C40.7519 39.098 42.4157 39.5269 44.1021 39.9942C43.2777 41.2506 42.35 42.4279 41.312 43.4931C40.6401 41.9429 39.964 40.3914 39.2794 38.8456ZM42.1238 45.3682C41.9244 44.9049 41.7218 44.4403 41.5211 43.9763C42.6756 42.8131 43.7134 41.5263 44.6167 40.1375C44.9091 40.2195 45.2016 40.3021 45.4935 40.385C45.67 40.4353 45.8474 40.4855 46.0247 40.5349C44.9173 42.3088 43.6071 43.932 42.1238 45.3682ZM58.6616 40.4873C57.6314 41.4113 55.2572 41.6899 53.487 41.5523C51.3113 41.3866 48.4347 40.571 45.6522 39.7811C43.3364 39.1242 40.9715 38.4665 38.9773 38.1632C38.8543 37.8854 38.7321 37.6059 38.6082 37.33C38.4207 36.9121 38.2162 36.4994 38.0125 36.0877C37.9166 35.8955 37.8233 35.7059 37.7316 35.5173L58.3739 37.0205C59.0927 37.8414 59.427 38.5414 59.3948 39.1568C59.371 39.6312 59.13 40.0658 58.6616 40.4873Z" fill="white"/>
</svg>
