<svg width="60" height="60" viewBox="0 0 60 60" fill="none" xmlns="http://www.w3.org/2000/svg">
<path d="M52.4766 28.8516C53.9766 28.8516 55.1719 27.6328 55.1719 26.1328C55.1719 24.6328 53.9531 23.4141 52.4766 23.4141C50.9766 23.4141 49.7578 24.6328 49.7578 26.1328C49.7578 27.6328 50.9766 28.8516 52.4766 28.8516Z" fill="white"/>
<path d="M33.8672 13.9219C36 13.9219 37.7344 12.1875 37.7344 10.0547C37.7344 7.92188 36 6.1875 33.8672 6.1875C31.7344 6.1875 30 7.92188 30 10.0547C30 12.1875 31.7344 13.9219 33.8672 13.9219Z" fill="white"/>
<path d="M12.1641 13.9453C14.3203 13.9453 16.0781 12.2109 16.0781 10.0547C16.0781 7.89844 14.3203 6.16406 12.1641 6.16406C10.0078 6.16406 8.24999 7.89844 8.24999 10.0547C8.22655 12.2109 9.98436 13.9453 12.1641 13.9453Z" fill="white"/>
<path d="M48.7969 52.2422C48.7969 53.1094 49.5235 53.836 50.3907 53.836C51.2579 53.836 51.9844 53.1329 51.9844 52.2422V42.75H53.2266V52.2422C53.2266 53.1094 53.9297 53.836 54.8204 53.836C55.6876 53.836 56.4141 53.1329 56.4141 52.2422V34.4766H57.6329V40.5C57.6329 41.1563 58.1719 41.6954 58.8047 41.6954C59.461 41.6954 59.9766 41.1563 59.9766 40.5V33.6563C59.9766 31.7344 58.2891 30.1875 56.3672 30.1875C56.3672 30.1875 49.0079 30.1875 48.9844 30.1875L46.6172 29.9532L43.5704 19.2891C42.3282 15 38.7422 15.1172 38.7422 15.1172H28.8282C28.8282 15.1172 25.2422 14.9766 24 19.2891L22.4063 24.8672L20.8125 19.2891C19.5704 15 15.9844 15.1407 15.9844 15.1407H8.32036C8.32036 15.1407 4.71098 15 3.49223 19.3125L0.398484 30.0469C0.0937966 31.0547 0.585984 31.9922 1.47661 32.25C2.3438 32.5079 3.30473 31.8985 3.53911 31.0782L6.53911 20.6016H8.01567L3.63286 38.7422H7.50005V51.6329C7.50005 52.6875 8.3438 53.5547 9.42192 53.5547C10.4766 53.5547 11.3438 52.6875 11.3438 51.6329V38.7422H12.961V51.6329C12.961 52.6875 13.8282 53.5547 14.8829 53.5547C15.9375 53.5547 16.8047 52.6875 16.8047 51.6329V38.7422H20.625L16.2891 20.6016H17.7422L20.7422 31.0782C20.9532 31.7813 21.586 32.3438 22.336 32.2735C23.086 32.3438 23.8594 31.7813 24.0469 31.0782L27.0469 20.6016H28.4063V51.2579C28.4063 52.5 29.4375 53.5079 30.6797 53.5079C31.9219 53.5079 32.9532 52.5 32.9532 51.2579V33.8204H34.6172V51.2579C34.6172 52.5 35.625 53.5079 36.8907 53.5079C38.1329 53.5079 39.1641 52.5 39.1641 51.2579V20.6016H40.6407L43.4297 30.7266C43.5938 31.336 44.2266 31.9219 44.9063 32.1329L48.7969 33.211V52.2422Z" fill="white"/>
</svg>
