<svg width="60" height="60" viewBox="0 0 60 60" fill="none" xmlns="http://www.w3.org/2000/svg">
<path d="M2.93086 5.74219V11.1328H12.0703V5.74219H2.93086ZM17.9297 5.74219V11.1328H27.0703V5.74219H17.9297ZM32.9297 5.74219V11.1328H42.0703V5.74219H32.9297ZM47.9297 5.74219V11.1328H57.0703V5.74219H47.9297ZM6.44649 13.2422V20.7422H13.9453V26.1328H16.0547V20.7422H23.5547V13.2422H21.4453V18.6328H8.55586V13.2422H6.44649ZM36.4453 13.2422V20.7422H43.9453V26.1328H46.0547V20.7422H53.5547V13.2422H51.4453V18.6328H38.5547V13.2422H36.4453ZM10.4309 28.2422V33.6328H19.5703V28.2422H10.4309ZM40.4297 28.2422V33.6328H49.5703V28.2422H40.4297ZM13.9453 35.7422V41.3672H28.9453V46.7578H31.0547V41.3672H46.0547V35.7422H43.9453V39.2578H16.0547V35.7422H13.9453ZM25.4297 48.8672V54.2578H34.5703V48.8672H25.4297Z" fill="white"/>
</svg>
