<svg width="80" height="80" viewBox="0 0 80 80" fill="none" xmlns="http://www.w3.org/2000/svg">
<g clip-path="url(#clip0_101_100)">
<path d="M42.1167 49.1207H49.6498V55.1596V79.8445H0V55.1596V51.5176V49.1207H5.60311C6.03891 44.3892 7.09728 39.3775 8.37354 35.86C9.36965 33.1207 11.3619 30.4437 14.2879 30.4437C17.0272 30.4437 18.6148 32.0935 19.2374 34.4593L22.6615 43.611L30.9105 43.6733C32.6537 43.6733 34.0856 45.1052 34.0545 46.8484C34.0545 47.0351 34.0233 47.1908 33.9922 47.3775H39.5019L42.2412 33.0896L45.0739 33.6188L42.1167 49.1207ZM23.9377 32.7161C27.4241 32.7161 30.2568 29.8834 30.2568 26.397C30.2568 22.9106 27.4241 20.0779 23.9377 20.0779C20.4514 20.0779 17.6187 22.8795 17.6187 26.3659C17.6187 29.8834 20.4514 32.7161 23.9377 32.7161ZM26.5837 0.155762H11.5798L60.0778 36.327V79.6577H69.0428V43.0196L74.7704 47.3153L80.1245 40.1246L26.5837 0.155762Z" fill="white"/>
</g>
<defs>
<clipPath id="clip0_101_100">
<rect width="80" height="80" fill="white"/>
</clipPath>
</defs>
</svg>
