<svg width="60" height="60" viewBox="0 0 60 60" fill="none" xmlns="http://www.w3.org/2000/svg">
<g clip-path="url(#clip0_100_28)">
<path d="M51.25 52.5H50V11.25C50.0175 10.7528 49.9324 10.2574 49.7501 9.79454C49.5679 9.33167 49.2923 8.91127 48.9405 8.5595C48.5887 8.20774 48.1683 7.93215 47.7055 7.74987C47.2426 7.56759 46.7472 7.48254 46.25 7.5H37.5V5C37.5 4.33696 37.2366 3.70107 36.7678 3.23223C36.2989 2.76339 35.663 2.5 35 2.5H25C24.337 2.5 23.7011 2.76339 23.2322 3.23223C22.7634 3.70107 22.5 4.33696 22.5 5V7.5H13.75C13.2528 7.48254 12.7574 7.56759 12.2945 7.74987C11.8317 7.93215 11.4113 8.20774 11.0595 8.5595C10.7077 8.91127 10.4321 9.33167 10.2499 9.79454C10.0676 10.2574 9.98254 10.7528 10 11.25V52.5H8.75C8.08696 52.5 7.45107 52.7634 6.98223 53.2322C6.51339 53.7011 6.25 54.337 6.25 55C6.25 55.663 6.51339 56.2989 6.98223 56.7678C7.45107 57.2366 8.08696 57.5 8.75 57.5H51.25C51.913 57.5 52.5489 57.2366 53.0178 56.7678C53.4866 56.2989 53.75 55.663 53.75 55C53.75 54.337 53.4866 53.7011 53.0178 53.2322C52.5489 52.7634 51.913 52.5 51.25 52.5ZM26.25 8.75H28.75V6.25C28.75 5.91848 28.8817 5.60054 29.1161 5.36612C29.3505 5.1317 29.6685 5 30 5C30.3315 5 30.6495 5.1317 30.8839 5.36612C31.1183 5.60054 31.25 5.91848 31.25 6.25V8.75H33.75C34.0815 8.75 34.3995 8.8817 34.6339 9.11612C34.8683 9.35054 35 9.66848 35 10C35 10.3315 34.8683 10.6495 34.6339 10.8839C34.3995 11.1183 34.0815 11.25 33.75 11.25H31.25V13.75C31.25 14.0815 31.1183 14.3995 30.8839 14.6339C30.6495 14.8683 30.3315 15 30 15C29.6685 15 29.3505 14.8683 29.1161 14.6339C28.8817 14.3995 28.75 14.0815 28.75 13.75V11.25H26.25C25.9185 11.25 25.6005 11.1183 25.3661 10.8839C25.1317 10.6495 25 10.3315 25 10C25 9.66848 25.1317 9.35054 25.3661 9.11612C25.6005 8.8817 25.9185 8.75 26.25 8.75ZM20 20H27.5V27.5H20V20ZM20 31.25H27.5V38.75H20V31.25ZM33.75 52.5H26.25V43.75H33.75V52.5ZM40 38.75H32.5V31.25H40V38.75ZM40 27.5H32.5V20H40V27.5Z" fill="white"/>
</g>
<defs>
<clipPath id="clip0_100_28">
<rect width="60" height="60" fill="white"/>
</clipPath>
</defs>
</svg>
