<?xml version="1.0" encoding="UTF-8"?>
<svg id="Vetor" xmlns="http://www.w3.org/2000/svg" viewBox="0 0 98.02 95">
  <defs>
    <style>
      .cls-1, .cls-2, .cls-3 {
        stroke-width: 2px;
      }

      .cls-1, .cls-2, .cls-3, .cls-4 {
        stroke: #fff;
        stroke-miterlimit: 10;
      }

      .cls-1, .cls-3 {
        fill: none;
      }

      .cls-2 {
        fill: #f6f6f6;
      }

      .cls-3 {
        stroke-linecap: round;
      }

      .cls-4 {
        fill: #1f4e68;
      }
    </style>
  </defs>
  <ellipse class="cls-4" cx="49.01" cy="47.5" rx="48.51" ry="47"/>
  <path class="cls-2" d="m21.53,81.73h55.38c.37,0,.67.3.67.67h0c0,.37-.3.67-.67.67H21.53c-.37,0-.67-.3-.67-.67h0c0-.37.3-.67.67-.67Z"/>
  <path class="cls-1" d="m68.88,65.38c-4.54-.02-9.08-.03-13.62-.02-.41,0-.63.18-.53.62.25,1,.6,1.99,1.17,2.86s1.34,1.62,2.3,2.04c1,.44,2.12.49,3.2.45,1.15-.05,2.3-.03,3.46-.03h7.55c1.78,0,3.02-.05,4.8-.04.11,0,.58-.09.69-.13.1-.04.26-.12.35-.19.94-.76,1.4-1.03,2.66-2.49.41-.48.65-1.09.84-1.69.09-.29.16-.59.2-.89.06-.46-.07-.47-.52-.51"/>
  <path class="cls-1" d="m37.3,71.13c-.1.04-.58.13-.69.13-1.78,0-3.02.04-4.8.04h-7.55c-1.16,0-2.31-.02-3.46.03-1.08.05-2.2,0-3.2-.45-.95-.42-1.73-1.17-2.3-2.04s-.92-1.86-1.17-2.86c-.11-.44.12-.62.53-.62,4.54-.01,9.08,0,13.62.02l12.55-.03c.46.04.58.05.52.51-.04.3-.11.6-.2.89-.19.6-.55,1.13-.84,1.69,0,0-1.13,2.26-3.01,2.68h0Z"/>
  <path class="cls-1" d="m74.58,65.18h7.01c.11,0,.2.09.2.19h0c0,.11-.09.19-.2.19h-7.01c-.11,0-.2-.09-.2-.19h0c0-.11.09-.19.2-.19Z"/>
  <path class="cls-1" d="m57.5,82.4v-30.61s.49-2.13-2.66-2.13h-13.5c-3.15,0-2.66,2.13-2.66,2.13v30.61"/>
  <line class="cls-1" x1="57.5" y1="56.61" x2="38.7" y2="56.61"/>
  <path class="cls-3" d="m40.54,49.66c.34-1.24.06-2.59-.44-3.76s-1.34-2.17-1.83-3.34c-.81-1.91-1.32-3.62-.98-5.78"/>
  <line class="cls-3" x1="78.08" y1="64.27" x2="70.22" y2="50.21"/>
  <line class="cls-3" x1="66.27" y1="50.21" x2="58.45" y2="64.27"/>
  <path class="cls-3" d="m57.53,32.75s-6.98.39-7.37,7.58"/>
  <line class="cls-3" x1="72.83" y1="27.14" x2="72.83" y2="19.64"/>
  <line class="cls-3" x1="68.33" y1="19.32" x2="68.33" y2="42.47"/>
  <line class="cls-3" x1="29.85" y1="50.21" x2="37.52" y2="64.74"/>
  <line class="cls-3" x1="18.24" y1="64.74" x2="26.3" y2="49.91"/>
  <circle class="cls-3" cx="27.93" cy="46.68" r="3.23"/>
  <circle class="cls-3" cx="68.33" cy="46.68" r="3.23"/>
  <line class="cls-3" x1="27.93" y1="43.45" x2="27.93" y2="19.32"/>
  <line class="cls-3" x1="23.38" y1="27.14" x2="23.38" y2="19.32"/>
  <line class="cls-3" x1="35.38" y1="21.85" x2="17.37" y2="21.85"/>
  <path class="cls-3" d="m17.65,25.36c-1.15.03-2.04-.87-2.01-1.82.02-.74.59-1.44,1.42-1.66"/>
  <line class="cls-3" x1="17.89" y1="25.36" x2="36.84" y2="25.36"/>
  <line class="cls-3" x1="36.84" y1="31.78" x2="36.84" y2="19.64"/>
  <path class="cls-3" d="m36.78,19.27c.33-1.18,1.46-1.98,2.58-1.97,1.43.02,2.8,1.36,2.52,2.98v6.12"/>
  <path class="cls-3" d="m41.86,26.55c-.12.2-.9,1.52-2.23,1.61-1.12.07-2.2-.75-2.79-2.13"/>
  <g id="Dedo">
    <path class="cls-3" d="m41.87,18.47c.31-1.4,1.36-2.35,2.4-2.33,1.33.02,2.61,1.61,2.35,3.54v7.26"/>
    <path class="cls-3" d="m46.54,27.17c-.11.24-.84,1.8-2.08,1.91-1.04.09-2.05-.89-2.6-2.53"/>
  </g>
  <g id="Dedo-2">
    <line class="cls-3" x1="47.15" y1="27.04" x2="47.15" y2="17.86"/>
    <path class="cls-3" d="m47.15,17.29c.35-1.28,1.55-2.14,2.75-2.13,1.52.02,2.98,1.47,2.68,3.22v6.61"/>
    <path class="cls-3" d="m51.88,28.67c-.11.24-.67,1.49-1.99,1.59-1.11.09-2.24-1.17-2.81-2.79"/>
  </g>
  <g id="Dedo-3">
    <polyline class="cls-3" points="52.69 18.84 52.62 25.17 78.08 25.17"/>
    <path class="cls-3" d="m52.69,18.87c.34-1.64,1.52-2.71,2.69-2.73,1.31-.01,2.49,1.79,2.37,2.35v5.1"/>
  </g>
  <path class="cls-3" d="m57.84,32.75v-2.29h-3.2c-.16,0-.32,0-.48-.04-.13-.04-.24-.11-.36-.18-.8-.5-1.57-1.13-2.16-1.87-.26-.33-.48-.69-.63-1.08-.66-1.8.82-2.44,2.96-2.16"/>
  <path class="cls-3" d="m78.2,25.16c1.21.1,2.16-.63,2.25-1.36.1-.83-.88-1.86-2.29-1.79"/>
  <line class="cls-3" x1="57.93" y1="21.95" x2="77.92" y2="21.95"/>
  <path class="cls-3" d="m55.41,49.42c-.07-1.34.05-3.29,1.15-5.13.98-1.64,2.07-2.08,3.59-3.83.2-.23,2.06-2.43,3-5.13,1.31-3.77.44-7.39-.24-9.36"/>
</svg>