<svg width="80" height="80" viewBox="0 0 80 80" fill="none" xmlns="http://www.w3.org/2000/svg">
<g clip-path="url(#clip0_20_28)">
<path d="M40 79.5062C61.8187 79.5062 79.5062 61.8187 79.5062 40C79.5062 18.1814 61.8187 0.493835 40 0.493835C18.1814 0.493835 0.493835 18.1814 0.493835 40C0.493835 61.8187 18.1814 79.5062 40 79.5062Z" fill="#1F4E68" stroke="white" stroke-miterlimit="10"/>
<path d="M69.6593 31.4864L70.0741 59.0123C70.0741 59.0123 70.0741 63.7037 63.7136 63.9111H15.6543C15.6543 63.9111 10.3407 64.5235 10.1333 55.9111C10.3407 47.2889 10.1333 26.4296 10.1333 26.4296C10.1333 26.4296 8.92839 22.6568 14.3506 22.6568H65.1259V19.3778L56.4247 19.4469V23.0716" stroke="white" stroke-miterlimit="10"/>
<path d="M18.0346 22.6568V63.9111" stroke="white" stroke-miterlimit="10"/>
<path d="M60.9877 22.6568V63.9111" stroke="white" stroke-miterlimit="10"/>
<path d="M15.1901 22.6568V19.4469H23.7235L23.684 23.0716" stroke="white" stroke-miterlimit="10"/>
<path d="M29.4815 22.6568V16.3556C29.4815 16.3556 28.8099 13.2148 32.7111 13.4222H47.4864C47.4864 13.4222 49.9457 13.837 49.9457 17.116V22.6568" stroke="white" stroke-miterlimit="10"/>
<path d="M65.6494 22.6568C65.6494 22.6568 69.6494 22.1037 69.6494 26.7951V33.7778" stroke="white" stroke-miterlimit="10"/>
</g>
<defs>
<clipPath id="clip0_20_28">
<rect width="80" height="80" fill="white"/>
</clipPath>
</defs>
</svg>
