<svg width="80" height="80" viewBox="0 0 80 80" fill="none" xmlns="http://www.w3.org/2000/svg">
<g clip-path="url(#clip0_20_52)">
<path d="M40 79.5062C61.8187 79.5062 79.5062 61.8187 79.5062 40C79.5062 18.1814 61.8187 0.493835 40 0.493835C18.1813 0.493835 0.493828 18.1814 0.493828 40C0.493828 61.8187 18.1813 79.5062 40 79.5062Z" fill="#1F4E68" stroke="white" stroke-miterlimit="10"/>
<path d="M69.1358 40.4938C69.1358 45.5408 67.9309 50.3012 65.8074 54.4988C60.8099 64.3654 50.6864 71.1111 39.0123 71.1111C22.3802 71.1111 8.88889 57.4025 8.88889 40.4938C8.88889 23.5852 22.3802 9.87656 39.0123 9.87656C55.6444 9.87656 69.1358 23.5852 69.1358 40.4938Z" stroke="white" stroke-width="2" stroke-miterlimit="10"/>
<path d="M63.7037 53.8272L67.5457 54.8148L73.1556 48.8889L74.558 41.9753L70.3506 28.8494L71.7531 27.1605L63.3284 29.1358L64.7309 32.0988C64.7309 32.0988 63.3284 37.037 63.3284 38.0247C63.3284 39.0123 61.9259 46.9136 63.3284 47.9012C64.7309 48.8889 63.6938 53.8272 63.6938 53.8272H63.7037Z" fill="#1F4E68"/>
<path d="M56 25.2689L67.1453 28L69 18" stroke="white" stroke-width="2" stroke-miterlimit="10"/>
<path d="M37.506 56.5561V26.4761H40.706V56.5561H37.506ZM38.658 53.1001C36.866 53.1001 35.1486 52.8654 33.506 52.3961C31.8633 51.9054 30.5406 51.2761 29.538 50.5081L31.298 46.6041C32.258 47.2867 33.3886 47.8521 34.69 48.3001C36.0126 48.7267 37.346 48.9401 38.69 48.9401C39.714 48.9401 40.5353 48.8441 41.154 48.6521C41.794 48.4387 42.2633 48.1507 42.562 47.7881C42.8606 47.4254 43.01 47.0094 43.01 46.5401C43.01 45.9427 42.7753 45.4734 42.306 45.1321C41.8366 44.7694 41.218 44.4814 40.45 44.2681C39.682 44.0334 38.8286 43.8201 37.89 43.6281C36.9726 43.4147 36.0446 43.1587 35.106 42.8601C34.1886 42.5614 33.346 42.1774 32.578 41.7081C31.81 41.2387 31.1806 40.6201 30.69 39.8521C30.2206 39.0841 29.986 38.1027 29.986 36.9081C29.986 35.6281 30.3273 34.4654 31.01 33.4201C31.714 32.3534 32.7593 31.5107 34.146 30.8921C35.554 30.2521 37.314 29.9321 39.426 29.9321C40.834 29.9321 42.2206 30.1027 43.586 30.4441C44.9513 30.7641 46.1566 31.2547 47.202 31.9161L45.602 35.8521C44.5566 35.2547 43.5113 34.8174 42.466 34.5401C41.4206 34.2414 40.3966 34.0921 39.394 34.0921C38.3913 34.0921 37.57 34.2094 36.93 34.4441C36.29 34.6787 35.8313 34.9881 35.554 35.3721C35.2766 35.7347 35.138 36.1614 35.138 36.6521C35.138 37.2281 35.3726 37.6974 35.842 38.0601C36.3113 38.4014 36.93 38.6787 37.698 38.8921C38.466 39.1054 39.3086 39.3187 40.226 39.5321C41.1646 39.7454 42.0926 39.9907 43.01 40.2681C43.9486 40.5454 44.802 40.9187 45.57 41.3881C46.338 41.8574 46.9566 42.4761 47.426 43.2441C47.9166 44.0121 48.162 44.9827 48.162 46.1561C48.162 47.4147 47.81 48.5667 47.106 49.6121C46.402 50.6574 45.346 51.5001 43.938 52.1401C42.5513 52.7801 40.7913 53.1001 38.658 53.1001Z" fill="white"/>
<path d="M54.4494 26.9827L55.3086 22.7161L51.8123 22.1729L52.3457 25.679L54.4494 26.9827Z" fill="#1F4E68"/>
<path d="M55.3086 23.6444L54.8346 27.1605L53.2642 26.2518L53.8272 23.6444H55.3086Z" fill="#1F4E68"/>
</g>
<defs>
<clipPath id="clip0_20_52">
<rect width="80" height="80" fill="white"/>
</clipPath>
</defs>
</svg>
