<svg id="Camada_1" data-name="Camada 1" xmlns="http://www.w3.org/2000/svg" viewBox="0 0 81 81"><defs><style>.cls-1{fill:#1f4e68;}.cls-1,.cls-2{stroke:#fff;stroke-miterlimit:10;}.cls-2{fill:none;}</style></defs><circle class="cls-1" cx="40.5" cy="40.5" r="40"/><path class="cls-2" d="M25.75,42v8s-5-3-5-7V28s2-3,8-3h11a6.46,6.46,0,0,1,5,3h10s7,0,7,5V48.53s-2,3.47-5,3.47V45" transform="translate(-0.75)"/><path class="cls-2" d="M25.75,42.5s3,28.5,4,29.5H51.62s3.13-3,3.13-6" transform="translate(-0.75)"/><line class="cls-2" x1="54" y1="66" x2="56" y2="50.97"/><path class="cls-2" d="M44.14,27.21S36.75,29,37.75,34" transform="translate(-0.75)"/><path class="cls-2" d="M44.75,71l1-12v4s3-1,3-3V53s-.41-2-3.7-2-7.17,0-7.17,0l-2.13,0s-3,1-3,6a7.94,7.94,0,0,0,4,7l.83,8" transform="translate(-0.75)"/><line class="cls-2" x1="37.1" y1="71.56" x2="35.4" y2="58.44"/><circle class="cls-2" cx="32.5" cy="14.5" r="6.5"/><ellipse class="cls-2" cx="49" cy="17.5" rx="6" ry="6.5"/><ellipse class="cls-2" cx="40" cy="41" rx="6" ry="7"/><line class="cls-2" x1="44.16" y1="69.05" x2="44" y2="72"/></svg>