<?xml version="1.0" encoding="UTF-8"?>
<svg id="Camada_2" data-name="Camada 2" xmlns="http://www.w3.org/2000/svg" viewBox="0 0 84.77 83.23">
  <defs>
    <style>
      .cls-1 {
        stroke-linejoin: round;
      }

      .cls-1, .cls-2, .cls-3, .cls-4 {
        stroke: #fff;
        stroke-width: 3px;
      }

      .cls-1, .cls-3, .cls-4 {
        fill: none;
      }

      .cls-2 {
        fill: #1f4e68;
      }

      .cls-2, .cls-3, .cls-4 {
        stroke-miterlimit: 10;
      }

      .cls-2, .cls-4 {
        stroke-linecap: round;
      }
    </style>
  </defs>
  <circle class="cls-2" cx="41.89" cy="42.15" r="40.07"/>
  <path class="cls-1" d="m70.89,20.89s.49-3.45-4.05-3.24H16.88"/>
  <path class="cls-1" d="m13.33,20.86s-.53-3.45,4.25-3.22"/>
  <path class="cls-1" d="m18.53,59.41c-5.86.28-5.2-3.62-5.2-3.62V20.24"/>
  <path class="cls-1" d="m70.88,20.24l-.02,35.54s.57,3.87-4.61,3.63"/>
  <line class="cls-1" x1="17.6" y1="59.42" x2="66.84" y2="59.42"/>
  <line class="cls-4" x1="13.33" y1="50.38" x2="55.43" y2="50.38"/>
  <line class="cls-4" x1="70.87" y1="50.38" x2="60.28" y2="50.38"/>
  <line class="cls-4" x1="30.1" y1="45.69" x2="54.16" y2="45.69"/>
  <line class="cls-3" x1="45.21" y1="45.17" x2="42.99" y2="24.69"/>
  <line class="cls-3" x1="38.92" y1="45.13" x2="41.92" y2="24.73"/>
  <line class="cls-3" x1="38.29" y1="24.96" x2="46.5" y2="24.96"/>
  <path class="cls-3" d="m46.21,24.96c.33,0,.66,0,.99,0,.7,0,.42-1.03.42-1.53,0-.61-.17-1.01.58-1.03.91-.02,1.82,0,2.73,0"/>
  <path class="cls-3" d="m38.29,24.96c-.33,0-.66,0-.99,0-.7,0-.42-1.03-.42-1.53,0-.61.17-1.01-.58-1.03-.91-.02-1.82,0-2.73,0"/>
  <line class="cls-4" x1="49.75" y1="22.4" x2="57.82" y2="22.4"/>
  <line class="cls-4" x1="25.51" y1="22.4" x2="33.58" y2="22.4"/>
  <path class="cls-4" d="m32.96,33.12l-2.91-9.51c-.17-.55-.78-.52-.92.04l-2.27,9.47"/>
  <path class="cls-4" d="m57.41,33.28l-2.93-9.68c-.16-.53-.75-.5-.88.04l-2.29,9.64"/>
  <line class="cls-4" x1="33.98" y1="33.45" x2="25.85" y2="33.45"/>
  <path class="cls-4" d="m25.51,33.45c-.1,0-.2,0-.29,0-.46-.01-.82.37-.81.83s.04.89.09,1.33c.15,1.36.47,3.28,1.71,3.99.14.08.29.14.45.18,2.85.11,6.31,0,6.31,0"/>
  <path class="cls-4" d="m34.32,33.45c.17,0,.34,0,.51,0,.11,0,.47-.07.55,0,.07.05.04.1.05.19.02.21,0,.43,0,.65-.02.71-.08,1.41-.2,2.11-.21,1.26-.68,2.99-1.98,3.37-.04.01-.09.02-.14.02-2.84.11-6.24,0-6.24,0"/>
  <line class="cls-4" x1="58.42" y1="33.45" x2="50.3" y2="33.45"/>
  <path class="cls-4" d="m49.96,33.45c-.1,0-.2,0-.29,0-.46-.01-.82.37-.81.83s.04.89.09,1.33c.15,1.36.47,3.28,1.71,3.99.14.08.29.14.45.18,2.85.11,6.31,0,6.31,0"/>
  <path class="cls-4" d="m58.76,33.45c.17,0,.34,0,.51,0,.11,0,.47-.07.55,0,.07.05.04.1.05.19.02.21,0,.43,0,.65-.02.71-.08,1.41-.2,2.11-.21,1.26-.68,2.99-1.98,3.37-.04.01-.09.02-.14.02-2.84.11-6.24,0-6.24,0"/>
  <line class="cls-4" x1="32.14" y1="71.02" x2="35.94" y2="59.76"/>
  <line class="cls-4" x1="50.75" y1="70.68" x2="46.95" y2="59.42"/>
  <line class="cls-4" x1="57.82" y1="71.37" x2="25.51" y2="71.37"/>
  <circle class="cls-4" cx="41.45" cy="54.36" r=".47"/>
  <rect class="cls-4" x="18.14" y="38.1" width=".65" height=".65"/>
  <rect class="cls-4" x="18.14" y="41.82" width=".65" height=".65"/>
  <rect class="cls-4" x="18.14" y="45.37" width=".65" height=".65"/>
</svg>