<svg width="50" height="50" viewBox="0 0 50 50" fill="none" xmlns="http://www.w3.org/2000/svg">
<g clip-path="url(#clip0_9_12)">
<rect width="50" height="50" rx="25" fill="white"/>
<path d="M25 49.9995C38.8071 49.9995 50 38.8066 50 24.9995C50 11.1924 38.8071 -0.000488281 25 -0.000488281C11.1929 -0.000488281 0 11.1924 0 24.9995C0 38.8066 11.1929 49.9995 25 49.9995Z" fill="white"/>
<path d="M35.2615 10.0298H14.7394C12.1413 10.0298 10.0334 12.1377 10.0334 14.7403V35.2624C10.0334 37.8605 12.1413 39.9685 14.7394 39.9685H35.2615C37.8597 39.9685 39.9676 37.8605 39.9676 35.2624V14.7403C39.9676 12.1377 37.8597 10.0298 35.2615 10.0298ZM32.0792 13.4925L35.8404 13.4836H35.8493C36.2103 13.4791 36.5044 13.7732 36.5044 14.1298V17.9044C36.5044 18.2654 36.2148 18.555 35.8538 18.555L32.097 18.5684C31.736 18.5684 31.4463 18.2787 31.4463 17.9222L31.433 14.1476C31.4285 13.7866 31.7182 13.4969 32.0792 13.4925ZM20.4125 22.4277C20.5106 22.2584 20.6131 22.089 20.7289 21.9286C21.6871 20.6006 23.2424 19.7316 24.9982 19.7316C26.7586 19.7316 28.3139 20.6006 29.272 21.9286C29.3879 22.089 29.4904 22.2584 29.5884 22.4322C30.0162 23.1898 30.2703 24.0677 30.2703 24.9991C30.2703 27.9048 27.9039 30.2667 24.9982 30.2667C22.0926 30.2667 19.7307 27.9048 19.7307 24.9991C19.7302 24.0677 19.9802 23.1898 20.4125 22.4277ZM37.053 34.1839C37.053 35.766 35.7651 37.0539 34.1831 37.0539H15.8179C14.2358 37.0539 12.9479 35.766 12.9479 34.1839V21.9286H17.4178C17.3063 22.2005 17.2083 22.4857 17.1281 22.7709C16.9231 23.4795 16.8161 24.2282 16.8161 24.9991C16.8161 29.5135 20.4883 33.1857 24.9982 33.1857C29.5127 33.1857 33.1848 29.5135 33.1848 24.9991C33.1848 24.2282 33.0734 23.4795 32.8729 22.7709C32.7882 22.4857 32.6946 22.2005 32.5832 21.9286H37.053V34.1839Z" fill="#00293F"/>
</g>
<defs>
<clipPath id="clip0_9_12">
<rect width="50" height="50" rx="25" fill="white"/>
</clipPath>
</defs>
</svg>
