<svg width="25" height="25" viewBox="0 0 25 25" fill="none" xmlns="http://www.w3.org/2000/svg">
<g clip-path="url(#clip0_31_86)">
<path d="M12.5891 -0.00854492C7.46484 -0.00854492 3.125 4.3563 3.125 9.52583C3.125 14.9399 8.15547 20.4766 11.5391 24.368C11.5523 24.3836 12.0992 24.9907 12.7727 24.9907H12.832C13.5062 24.9907 14.0492 24.3836 14.0625 24.368C17.2375 20.718 21.875 14.6985 21.875 9.52583C21.875 4.35552 18.4898 -0.00854492 12.5891 -0.00854492ZM12.9023 23.3196C12.875 23.3469 12.8352 23.3774 12.8 23.4032C12.7641 23.3782 12.725 23.3469 12.6961 23.3196L12.2875 22.8493C9.07969 19.1696 4.68672 14.1297 4.68672 9.52505C4.68672 5.20317 8.30547 1.55239 12.5883 1.55239C17.9234 1.55239 20.3117 5.5563 20.3117 9.52505C20.3117 13.0204 17.8187 17.6625 12.9023 23.3196ZM12.5273 4.72192C9.93906 4.72192 7.83984 6.82036 7.83984 9.40942C7.83984 11.9985 9.93906 14.0969 12.5273 14.0969C15.1156 14.0969 17.2148 11.9977 17.2148 9.40942C17.2148 6.82114 15.1164 4.72192 12.5273 4.72192ZM12.5273 12.5344C10.8039 12.5344 9.36641 11.0985 9.36641 9.37505C9.36641 7.65161 10.768 6.25005 12.4914 6.25005C14.2156 6.25005 15.6164 7.65161 15.6164 9.37505C15.6172 11.0985 14.2516 12.5344 12.5273 12.5344Z" fill="white"/>
</g>
<defs>
<clipPath id="clip0_31_86">
<rect width="25" height="25" fill="white"/>
</clipPath>
</defs>
</svg>
