<svg width="60" height="60" viewBox="0 0 60 60" fill="none" xmlns="http://www.w3.org/2000/svg">
<path d="M60 51.2001V54.0001C60 57.3001 57.3 60.0001 54 60.0001H6C2.7 60.0001 0 57.3001 0 54.0001V51.2001C0 43.9001 8.5 39.5001 16.5 36.0001C16.8 35.9001 17 35.8001 17.3 35.6001C17.9 35.3001 18.6 35.3001 19.2 35.7001C22.4 37.8001 26.1 39.0001 30 39.0001C33.9 39.0001 37.6 37.8001 40.8 35.8001C41.4 35.4001 42.1 35.4001 42.7 35.7001C43 35.8001 43.2 35.9001 43.5 36.1001C51.5 39.5001 60 43.9001 60 51.2001Z" fill="white"/>
<path d="M30 33C38.229 33 44.9 25.6127 44.9 16.5C44.9 7.3873 38.229 0 30 0C21.7709 0 15.1 7.3873 15.1 16.5C15.1 25.6127 21.7709 33 30 33Z" fill="white"/>
</svg>
