<svg width="60" height="60" viewBox="0 0 60 60" fill="none" xmlns="http://www.w3.org/2000/svg">
<path d="M30.0594 23.0541C33.6186 23.0541 36.4888 20.1837 36.4888 16.6247C36.4888 13.0657 33.6414 10.1953 30.0594 10.1953C26.5002 10.1953 23.63 13.0657 23.63 16.6247C23.6528 20.2069 26.5232 23.0541 30.0594 23.0541ZM15.1339 41.6766H3.58395C-0.158784 41.6766 -0.365503 35.959 3.65286 35.959H13.6642L19.4047 27.5088C21.1039 25.1897 23.0329 24.0874 25.7652 24.0874H34.3302C37.0628 24.0874 38.9914 25.0978 40.6907 27.5088L46.4542 35.959H56.5347C60.576 35.959 60.3233 41.6766 56.6725 41.6766H45.1225C44.2039 41.6766 43.1017 41.355 42.4588 40.3678L38.05 34.0762L38.027 49.8284H22.2292L22.2062 34.0762L17.7974 40.3678C17.1545 41.332 16.0525 41.6766 15.1339 41.6766Z" fill="white"/>
<path d="M59.5312 33.164H54.3954V29.7949H52.204V33.164H47.0681V17.0716H50.1497V15.9075H56.4497V17.0716H59.5312V33.164ZM51.1769 25.2752H49.1226V27.3295H51.1769V25.2752ZM51.1769 22.2075H49.1226V24.2618H51.1769V22.2075ZM51.1769 19.1259H49.1226V21.1802H51.1769V19.1259ZM54.3954 25.2752H52.204V27.3295H54.3954V25.2752ZM54.3816 24.2618V22.2075H53.2997H53.2861H52.2042V24.2618H54.3956H54.3816ZM54.3954 19.1259H53.3135H53.2999H52.218V21.1802H53.2999H53.3135H54.3954V19.1259ZM57.4769 25.2752H55.4226V27.3295H57.4769V25.2752ZM57.4769 22.2075H55.4226V24.2618H55.6008H57.4772L57.4769 22.2075ZM57.4769 19.1259H55.4226V21.1802H57.4769V19.1259Z" fill="white"/>
<path d="M15.4509 25.7766C15.4509 26.2275 15.0853 26.6055 14.622 26.6055C14.3782 26.6055 14.1464 26.4959 14.0002 26.3252L13.0249 25.4231V33.1641H9.53508V27.708H6.53039V33.1641H2.99227V25.362L1.87078 26.3737C1.72453 26.52 1.51734 26.6053 1.29773 26.6053C0.846563 26.6055 0.46875 26.2397 0.46875 25.7766C0.46875 25.5206 0.590625 25.2766 0.773437 25.1304L8.03906 18.6328L10.2211 20.6198V18.9375H12.0863V22.3266L15.2438 25.2157C15.3778 25.362 15.4509 25.5572 15.4509 25.7766Z" fill="white"/>
</svg>
