<svg width="80" height="80" viewBox="0 0 80 80" fill="none" xmlns="http://www.w3.org/2000/svg">
<path fill-rule="evenodd" clip-rule="evenodd" d="M39.6233 73.2668C39.8766 73.3535 40.1233 73.3568 40.3766 73.2668C43.6133 72.1668 66.6666 63.3935 66.6666 37.5101V14.3468C66.6673 14.0489 66.5682 13.7593 66.3851 13.5243C66.2021 13.2893 65.9456 13.1224 65.6566 13.0501L40.3233 6.70679C40.111 6.65373 39.8889 6.65373 39.6766 6.70679L14.3433 13.0501C14.0542 13.1224 13.7978 13.2893 13.6147 13.5243C13.4316 13.7593 13.3326 14.0489 13.3333 14.3468V37.5068C13.3333 63.1301 36.3933 72.1301 39.6233 73.2668ZM56.0466 28.6001C56.3009 28.2438 56.4826 27.8409 56.5812 27.4144C56.6798 26.9878 56.6934 26.5461 56.6213 26.1143C56.5492 25.6825 56.3927 25.2691 56.1608 24.8978C55.929 24.5265 55.6262 24.2044 55.2699 23.9501C54.9136 23.6958 54.5107 23.5141 54.0841 23.4155C53.6576 23.3169 53.2159 23.3033 52.7841 23.3754C52.3523 23.4475 51.9389 23.604 51.5676 23.8359C51.1963 24.0677 50.8742 24.3705 50.6199 24.7268L36.2399 44.8601L29.0233 37.6401C28.3946 37.0329 27.5526 36.6969 26.6786 36.7045C25.8046 36.7121 24.9686 37.0627 24.3505 37.6807C23.7325 38.2988 23.3819 39.1348 23.3743 40.0088C23.3667 40.8828 23.7027 41.7248 24.3099 42.3535L34.3099 52.3535C34.6522 52.6953 35.0649 52.9584 35.5191 53.1248C35.9734 53.2911 36.4584 53.3565 36.9405 53.3166C37.4226 53.2766 37.8902 53.1322 38.3109 52.8933C38.7316 52.6545 39.0952 52.327 39.3766 51.9335L56.0466 28.6001Z" fill="white"/>
</svg>
