<svg width="25" height="25" viewBox="0 0 25 25" fill="none" xmlns="http://www.w3.org/2000/svg">
<path fill-rule="evenodd" clip-rule="evenodd" d="M12.5 4.16659C7.89763 4.16659 4.16667 7.89754 4.16667 12.4999C4.16667 17.1023 7.89763 20.8333 12.5 20.8333C17.1024 20.8333 20.8333 17.1023 20.8333 12.4999C20.8333 7.89754 17.1024 4.16659 12.5 4.16659ZM2.08334 12.4999C2.08334 6.74695 6.74703 2.08325 12.5 2.08325C18.2529 2.08325 22.9167 6.74695 22.9167 12.4999C22.9167 18.2528 18.2529 22.9166 12.5 22.9166C6.74703 22.9166 2.08334 18.2528 2.08334 12.4999ZM12.3213 7.03884C12.8966 7.03884 13.3629 7.5052 13.3629 8.0805V13.2546L17.0368 14.6513C17.5746 14.8556 17.8448 15.4573 17.6403 15.995C17.4359 16.5328 16.8343 16.803 16.2966 16.5986L11.9511 14.9468C11.5469 14.793 11.2796 14.4055 11.2796 13.973V8.0805C11.2796 7.5052 11.7459 7.03884 12.3213 7.03884Z" fill="white"/>
</svg>
