<svg width="25" height="25" viewBox="0 0 25 25" fill="none" xmlns="http://www.w3.org/2000/svg">
<path d="M2.08334 22.9167L3.55367 17.572C2.65023 16.0041 2.17579 14.2259 2.17812 12.4163C2.16766 6.71409 6.79838 2.08337 12.4896 2.08337C15.2518 2.08337 17.8453 3.15427 19.7981 5.10775C20.7607 6.06531 21.5236 7.20437 22.0428 8.45894C22.562 9.7135 22.827 11.0586 22.8225 12.4163C22.8225 18.1075 18.1918 22.7383 12.5 22.7383C10.7675 22.7383 9.07682 22.3074 7.56463 21.4784L2.08334 22.9167ZM7.8065 19.6197L8.12162 19.8086C9.44426 20.5913 10.9527 21.0046 12.4896 21.0057C17.215 21.0057 21.0691 17.1523 21.0691 12.4262C21.0691 10.1373 20.1767 7.97456 18.5592 6.35775C17.7639 5.55788 16.818 4.92333 15.7764 4.49068C14.7346 4.05801 13.6175 3.83579 12.4896 3.83682C7.75358 3.83744 3.90079 7.69083 3.90079 12.4169C3.90079 14.0338 4.35253 15.6198 5.21357 16.9849L5.41297 17.3105L4.54148 20.4813L7.8065 19.6197Z" fill="white"/>
<path fill-rule="evenodd" clip-rule="evenodd" d="M9.91691 8.09018C9.72797 7.65935 9.51809 7.64889 9.33961 7.64889C9.18205 7.63843 9.01341 7.63843 8.83494 7.63843C8.66753 7.63843 8.3838 7.70121 8.14254 7.964C7.90067 8.22619 7.23965 8.84596 7.23965 10.1163C7.23965 11.3872 8.16347 12.6157 8.28963 12.7837C8.41519 12.9517 10.0745 15.6394 12.7 16.6795C14.8836 17.5406 15.325 17.3726 15.7976 17.3196C16.2697 17.2673 17.3203 16.7005 17.5406 16.0912C17.7505 15.493 17.7505 14.968 17.6877 14.8627C17.6249 14.7581 17.4458 14.6946 17.1942 14.5581C16.9314 14.4324 15.6715 13.8022 15.4302 13.718C15.1883 13.6342 15.0203 13.5923 14.8523 13.8441C14.6843 14.1069 14.1906 14.6842 14.0337 14.8522C13.886 15.0203 13.7291 15.0412 13.4768 14.9151C13.2146 14.7894 12.3849 14.5162 11.3977 13.6342C10.6308 12.9511 10.1163 12.1011 9.95876 11.8494C9.81228 11.5866 9.93783 11.4499 10.0745 11.3238C10.1902 11.2087 10.3373 11.0197 10.4634 10.8727C10.589 10.7249 10.6308 10.6098 10.7256 10.4418C10.8094 10.2738 10.7675 10.1163 10.7047 9.99072C10.6414 9.87501 10.1483 8.6047 9.91691 8.09018Z" fill="white"/>
</svg>
